<mxfile host="app.diagrams.net" modified="2024-03-10T17:52:08.373Z" agent="Mozilla/5.0 (Windows NT 10.0; Win64; x64) AppleWebKit/537.36 (KHTML, like Gecko) Chrome/121.0.0.0 Safari/537.36 OPR/107.0.0.0" etag="jKN_WpDUiqJ8j7UGOaK9" version="24.0.4" type="device">
  <diagram name="Страница — 1" id="U9gwZ_7K1mvT4oCjbU6m">
    <mxGraphModel dx="1866" dy="1259" grid="0" gridSize="10" guides="1" tooltips="1" connect="1" arrows="1" fold="1" page="0" pageScale="1" pageWidth="827" pageHeight="1169" math="0" shadow="0">
      <root>
        <mxCell id="0" />
        <mxCell id="1" parent="0" />
        <mxCell id="HS7j6jXC8Mc_RY7dgrat-2" value="use case" style="swimlane;whiteSpace=wrap;html=1;" parent="1" vertex="1">
          <mxGeometry x="-395" y="-194" width="757" height="1221" as="geometry" />
        </mxCell>
        <mxCell id="HS7j6jXC8Mc_RY7dgrat-7" style="edgeStyle=none;curved=1;rounded=0;orthogonalLoop=1;jettySize=auto;html=1;exitX=1;exitY=0.5;exitDx=0;exitDy=0;entryX=0;entryY=0.5;entryDx=0;entryDy=0;fontSize=12;startSize=8;endSize=8;" parent="HS7j6jXC8Mc_RY7dgrat-2" source="HS7j6jXC8Mc_RY7dgrat-3" target="HS7j6jXC8Mc_RY7dgrat-5" edge="1">
          <mxGeometry relative="1" as="geometry" />
        </mxCell>
        <mxCell id="HS7j6jXC8Mc_RY7dgrat-9" value="include" style="edgeLabel;html=1;align=center;verticalAlign=middle;resizable=0;points=[];fontSize=12;" parent="HS7j6jXC8Mc_RY7dgrat-7" vertex="1" connectable="0">
          <mxGeometry x="-0.1216" y="3" relative="1" as="geometry">
            <mxPoint as="offset" />
          </mxGeometry>
        </mxCell>
        <mxCell id="HS7j6jXC8Mc_RY7dgrat-8" style="edgeStyle=none;curved=1;rounded=0;orthogonalLoop=1;jettySize=auto;html=1;exitX=1;exitY=0.5;exitDx=0;exitDy=0;entryX=0;entryY=0.5;entryDx=0;entryDy=0;fontSize=12;startSize=8;endSize=8;" parent="HS7j6jXC8Mc_RY7dgrat-2" source="HS7j6jXC8Mc_RY7dgrat-3" target="HS7j6jXC8Mc_RY7dgrat-6" edge="1">
          <mxGeometry relative="1" as="geometry" />
        </mxCell>
        <mxCell id="HS7j6jXC8Mc_RY7dgrat-10" value="include" style="edgeLabel;html=1;align=center;verticalAlign=middle;resizable=0;points=[];fontSize=12;" parent="HS7j6jXC8Mc_RY7dgrat-8" vertex="1" connectable="0">
          <mxGeometry x="-0.1836" y="-2" relative="1" as="geometry">
            <mxPoint as="offset" />
          </mxGeometry>
        </mxCell>
        <mxCell id="HS7j6jXC8Mc_RY7dgrat-3" value="Теоретический&lt;div&gt;материал&amp;nbsp;&lt;/div&gt;" style="rounded=0;whiteSpace=wrap;html=1;" parent="HS7j6jXC8Mc_RY7dgrat-2" vertex="1">
          <mxGeometry x="76" y="184" width="120" height="60" as="geometry" />
        </mxCell>
        <mxCell id="HS7j6jXC8Mc_RY7dgrat-19" style="edgeStyle=none;curved=1;rounded=0;orthogonalLoop=1;jettySize=auto;html=1;exitX=1;exitY=0.5;exitDx=0;exitDy=0;entryX=0;entryY=0.5;entryDx=0;entryDy=0;fontSize=12;startSize=8;endSize=8;" parent="HS7j6jXC8Mc_RY7dgrat-2" source="HS7j6jXC8Mc_RY7dgrat-4" target="HS7j6jXC8Mc_RY7dgrat-11" edge="1">
          <mxGeometry relative="1" as="geometry" />
        </mxCell>
        <mxCell id="HS7j6jXC8Mc_RY7dgrat-21" value="include" style="edgeLabel;html=1;align=center;verticalAlign=middle;resizable=0;points=[];fontSize=12;" parent="HS7j6jXC8Mc_RY7dgrat-19" vertex="1" connectable="0">
          <mxGeometry x="-0.2767" y="1" relative="1" as="geometry">
            <mxPoint as="offset" />
          </mxGeometry>
        </mxCell>
        <mxCell id="HS7j6jXC8Mc_RY7dgrat-4" value="Практический материал" style="rounded=0;whiteSpace=wrap;html=1;" parent="HS7j6jXC8Mc_RY7dgrat-2" vertex="1">
          <mxGeometry x="57" y="483" width="120" height="60" as="geometry" />
        </mxCell>
        <mxCell id="HS7j6jXC8Mc_RY7dgrat-5" value="Текст" style="rounded=0;whiteSpace=wrap;html=1;" parent="HS7j6jXC8Mc_RY7dgrat-2" vertex="1">
          <mxGeometry x="296" y="98" width="120" height="60" as="geometry" />
        </mxCell>
        <mxCell id="HS7j6jXC8Mc_RY7dgrat-6" value="Изображения" style="rounded=0;whiteSpace=wrap;html=1;" parent="HS7j6jXC8Mc_RY7dgrat-2" vertex="1">
          <mxGeometry x="301" y="244" width="120" height="60" as="geometry" />
        </mxCell>
        <mxCell id="HS7j6jXC8Mc_RY7dgrat-11" value="Тесты" style="rounded=0;whiteSpace=wrap;html=1;" parent="HS7j6jXC8Mc_RY7dgrat-2" vertex="1">
          <mxGeometry x="296" y="350" width="120" height="60" as="geometry" />
        </mxCell>
        <mxCell id="HS7j6jXC8Mc_RY7dgrat-30" style="edgeStyle=none;curved=1;rounded=0;orthogonalLoop=1;jettySize=auto;html=1;exitX=0;exitY=0.5;exitDx=0;exitDy=0;entryX=1;entryY=0.5;entryDx=0;entryDy=0;fontSize=12;startSize=8;endSize=8;dashed=1;" parent="HS7j6jXC8Mc_RY7dgrat-2" source="HS7j6jXC8Mc_RY7dgrat-12" target="HS7j6jXC8Mc_RY7dgrat-11" edge="1">
          <mxGeometry relative="1" as="geometry" />
        </mxCell>
        <mxCell id="HS7j6jXC8Mc_RY7dgrat-32" value="extend" style="edgeLabel;html=1;align=center;verticalAlign=middle;resizable=0;points=[];fontSize=12;" parent="HS7j6jXC8Mc_RY7dgrat-30" vertex="1" connectable="0">
          <mxGeometry x="-0.2159" y="-1" relative="1" as="geometry">
            <mxPoint as="offset" />
          </mxGeometry>
        </mxCell>
        <mxCell id="HS7j6jXC8Mc_RY7dgrat-12" value="Заготовленные тесты" style="rounded=0;whiteSpace=wrap;html=1;" parent="HS7j6jXC8Mc_RY7dgrat-2" vertex="1">
          <mxGeometry x="531" y="344" width="120" height="60" as="geometry" />
        </mxCell>
        <mxCell id="HS7j6jXC8Mc_RY7dgrat-31" style="edgeStyle=none;curved=1;rounded=0;orthogonalLoop=1;jettySize=auto;html=1;exitX=0;exitY=0.5;exitDx=0;exitDy=0;entryX=1;entryY=0.5;entryDx=0;entryDy=0;fontSize=12;startSize=8;endSize=8;dashed=1;" parent="HS7j6jXC8Mc_RY7dgrat-2" source="HS7j6jXC8Mc_RY7dgrat-13" target="HS7j6jXC8Mc_RY7dgrat-11" edge="1">
          <mxGeometry relative="1" as="geometry" />
        </mxCell>
        <mxCell id="HS7j6jXC8Mc_RY7dgrat-34" value="extend" style="edgeLabel;html=1;align=center;verticalAlign=middle;resizable=0;points=[];fontSize=12;" parent="HS7j6jXC8Mc_RY7dgrat-31" vertex="1" connectable="0">
          <mxGeometry x="0.0409" y="1" relative="1" as="geometry">
            <mxPoint as="offset" />
          </mxGeometry>
        </mxCell>
        <mxCell id="HS7j6jXC8Mc_RY7dgrat-13" value="Генерация теста" style="rounded=0;whiteSpace=wrap;html=1;" parent="HS7j6jXC8Mc_RY7dgrat-2" vertex="1">
          <mxGeometry x="531" y="428" width="120" height="60" as="geometry" />
        </mxCell>
        <mxCell id="HS7j6jXC8Mc_RY7dgrat-22" value="Практические задачи" style="rounded=0;whiteSpace=wrap;html=1;" parent="HS7j6jXC8Mc_RY7dgrat-2" vertex="1">
          <mxGeometry x="286" y="585" width="120" height="60" as="geometry" />
        </mxCell>
        <mxCell id="HS7j6jXC8Mc_RY7dgrat-23" style="edgeStyle=none;curved=1;rounded=0;orthogonalLoop=1;jettySize=auto;html=1;exitX=1;exitY=0.5;exitDx=0;exitDy=0;entryX=0.025;entryY=0.617;entryDx=0;entryDy=0;entryPerimeter=0;fontSize=12;startSize=8;endSize=8;" parent="HS7j6jXC8Mc_RY7dgrat-2" source="HS7j6jXC8Mc_RY7dgrat-4" target="HS7j6jXC8Mc_RY7dgrat-22" edge="1">
          <mxGeometry relative="1" as="geometry" />
        </mxCell>
        <mxCell id="HS7j6jXC8Mc_RY7dgrat-25" value="include" style="edgeLabel;html=1;align=center;verticalAlign=middle;resizable=0;points=[];fontSize=12;" parent="HS7j6jXC8Mc_RY7dgrat-23" vertex="1" connectable="0">
          <mxGeometry x="-0.0293" relative="1" as="geometry">
            <mxPoint as="offset" />
          </mxGeometry>
        </mxCell>
        <mxCell id="HS7j6jXC8Mc_RY7dgrat-36" style="edgeStyle=none;curved=1;rounded=0;orthogonalLoop=1;jettySize=auto;html=1;exitX=0;exitY=0.5;exitDx=0;exitDy=0;entryX=1;entryY=0.5;entryDx=0;entryDy=0;fontSize=12;startSize=8;endSize=8;dashed=1;" parent="HS7j6jXC8Mc_RY7dgrat-2" source="HS7j6jXC8Mc_RY7dgrat-26" target="HS7j6jXC8Mc_RY7dgrat-22" edge="1">
          <mxGeometry relative="1" as="geometry" />
        </mxCell>
        <mxCell id="HS7j6jXC8Mc_RY7dgrat-38" value="extend" style="edgeLabel;html=1;align=center;verticalAlign=middle;resizable=0;points=[];fontSize=12;" parent="HS7j6jXC8Mc_RY7dgrat-36" vertex="1" connectable="0">
          <mxGeometry x="-0.0167" y="-1" relative="1" as="geometry">
            <mxPoint as="offset" />
          </mxGeometry>
        </mxCell>
        <mxCell id="HS7j6jXC8Mc_RY7dgrat-26" value="Составление графа&lt;div&gt;по задаче&lt;/div&gt;" style="rounded=0;whiteSpace=wrap;html=1;" parent="HS7j6jXC8Mc_RY7dgrat-2" vertex="1">
          <mxGeometry x="522" y="633" width="120" height="60" as="geometry" />
        </mxCell>
        <mxCell id="HS7j6jXC8Mc_RY7dgrat-40" style="edgeStyle=none;curved=1;rounded=0;orthogonalLoop=1;jettySize=auto;html=1;exitX=0;exitY=0.5;exitDx=0;exitDy=0;entryX=1;entryY=0.5;entryDx=0;entryDy=0;fontSize=12;startSize=8;endSize=8;dashed=1;" parent="HS7j6jXC8Mc_RY7dgrat-2" source="HS7j6jXC8Mc_RY7dgrat-39" target="HS7j6jXC8Mc_RY7dgrat-11" edge="1">
          <mxGeometry relative="1" as="geometry" />
        </mxCell>
        <mxCell id="HS7j6jXC8Mc_RY7dgrat-41" value="extend" style="edgeLabel;html=1;align=center;verticalAlign=middle;resizable=0;points=[];fontSize=12;" parent="HS7j6jXC8Mc_RY7dgrat-40" vertex="1" connectable="0">
          <mxGeometry x="-0.0558" y="3" relative="1" as="geometry">
            <mxPoint as="offset" />
          </mxGeometry>
        </mxCell>
        <mxCell id="HS7j6jXC8Mc_RY7dgrat-39" value="Просмотреть результат" style="rounded=0;whiteSpace=wrap;html=1;" parent="HS7j6jXC8Mc_RY7dgrat-2" vertex="1">
          <mxGeometry x="531" y="257" width="120" height="60" as="geometry" />
        </mxCell>
        <mxCell id="HS7j6jXC8Mc_RY7dgrat-43" style="edgeStyle=none;curved=1;rounded=0;orthogonalLoop=1;jettySize=auto;html=1;exitX=0;exitY=0.5;exitDx=0;exitDy=0;entryX=1;entryY=0.5;entryDx=0;entryDy=0;fontSize=12;startSize=8;endSize=8;dashed=1;" parent="HS7j6jXC8Mc_RY7dgrat-2" source="HS7j6jXC8Mc_RY7dgrat-42" target="HS7j6jXC8Mc_RY7dgrat-22" edge="1">
          <mxGeometry relative="1" as="geometry" />
        </mxCell>
        <mxCell id="HS7j6jXC8Mc_RY7dgrat-42" value="Просмотреть результат" style="rounded=0;whiteSpace=wrap;html=1;" parent="HS7j6jXC8Mc_RY7dgrat-2" vertex="1">
          <mxGeometry x="522" y="531" width="120" height="60" as="geometry" />
        </mxCell>
        <mxCell id="HS7j6jXC8Mc_RY7dgrat-88" style="edgeStyle=none;curved=1;rounded=0;orthogonalLoop=1;jettySize=auto;html=1;exitX=1;exitY=0.5;exitDx=0;exitDy=0;entryX=0;entryY=0.5;entryDx=0;entryDy=0;fontSize=12;startSize=8;endSize=8;" parent="HS7j6jXC8Mc_RY7dgrat-2" source="HS7j6jXC8Mc_RY7dgrat-82" target="HS7j6jXC8Mc_RY7dgrat-83" edge="1">
          <mxGeometry relative="1" as="geometry" />
        </mxCell>
        <mxCell id="HS7j6jXC8Mc_RY7dgrat-89" value="include" style="edgeLabel;html=1;align=center;verticalAlign=middle;resizable=0;points=[];fontSize=12;" parent="HS7j6jXC8Mc_RY7dgrat-88" vertex="1" connectable="0">
          <mxGeometry x="-0.124" y="-1" relative="1" as="geometry">
            <mxPoint as="offset" />
          </mxGeometry>
        </mxCell>
        <mxCell id="HS7j6jXC8Mc_RY7dgrat-82" value="Настройки" style="rounded=0;whiteSpace=wrap;html=1;" parent="HS7j6jXC8Mc_RY7dgrat-2" vertex="1">
          <mxGeometry x="60" y="915" width="120" height="60" as="geometry" />
        </mxCell>
        <mxCell id="HS7j6jXC8Mc_RY7dgrat-83" value="Изменение параметров&lt;div&gt;графического отображения графа&lt;/div&gt;" style="rounded=0;whiteSpace=wrap;html=1;" parent="HS7j6jXC8Mc_RY7dgrat-2" vertex="1">
          <mxGeometry x="301" y="915" width="120" height="60" as="geometry" />
        </mxCell>
        <mxCell id="HS7j6jXC8Mc_RY7dgrat-90" style="edgeStyle=none;curved=1;rounded=0;orthogonalLoop=1;jettySize=auto;html=1;exitX=0;exitY=0.5;exitDx=0;exitDy=0;entryX=1;entryY=0.5;entryDx=0;entryDy=0;fontSize=12;startSize=8;endSize=8;dashed=1;" parent="HS7j6jXC8Mc_RY7dgrat-2" source="HS7j6jXC8Mc_RY7dgrat-84" target="HS7j6jXC8Mc_RY7dgrat-83" edge="1">
          <mxGeometry relative="1" as="geometry" />
        </mxCell>
        <mxCell id="HS7j6jXC8Mc_RY7dgrat-94" value="extend" style="edgeLabel;html=1;align=center;verticalAlign=middle;resizable=0;points=[];fontSize=12;" parent="HS7j6jXC8Mc_RY7dgrat-90" vertex="1" connectable="0">
          <mxGeometry x="-0.0896" relative="1" as="geometry">
            <mxPoint as="offset" />
          </mxGeometry>
        </mxCell>
        <mxCell id="HS7j6jXC8Mc_RY7dgrat-84" value="Изменение стандартного цвета вершин" style="rounded=0;whiteSpace=wrap;html=1;" parent="HS7j6jXC8Mc_RY7dgrat-2" vertex="1">
          <mxGeometry x="524" y="777.5" width="120" height="60" as="geometry" />
        </mxCell>
        <mxCell id="HS7j6jXC8Mc_RY7dgrat-91" style="edgeStyle=none;curved=1;rounded=0;orthogonalLoop=1;jettySize=auto;html=1;exitX=0;exitY=0.5;exitDx=0;exitDy=0;entryX=1;entryY=0.5;entryDx=0;entryDy=0;fontSize=12;startSize=8;endSize=8;dashed=1;" parent="HS7j6jXC8Mc_RY7dgrat-2" source="HS7j6jXC8Mc_RY7dgrat-85" target="HS7j6jXC8Mc_RY7dgrat-83" edge="1">
          <mxGeometry relative="1" as="geometry" />
        </mxCell>
        <mxCell id="HS7j6jXC8Mc_RY7dgrat-95" value="extend" style="edgeLabel;html=1;align=center;verticalAlign=middle;resizable=0;points=[];fontSize=12;" parent="HS7j6jXC8Mc_RY7dgrat-91" vertex="1" connectable="0">
          <mxGeometry x="-0.2311" y="2" relative="1" as="geometry">
            <mxPoint as="offset" />
          </mxGeometry>
        </mxCell>
        <mxCell id="HS7j6jXC8Mc_RY7dgrat-85" value="Изменение стандартного цвета связей" style="rounded=0;whiteSpace=wrap;html=1;" parent="HS7j6jXC8Mc_RY7dgrat-2" vertex="1">
          <mxGeometry x="524" y="870.5" width="120" height="60" as="geometry" />
        </mxCell>
        <mxCell id="HS7j6jXC8Mc_RY7dgrat-92" style="edgeStyle=none;curved=1;rounded=0;orthogonalLoop=1;jettySize=auto;html=1;exitX=0;exitY=0.5;exitDx=0;exitDy=0;entryX=1;entryY=0.5;entryDx=0;entryDy=0;fontSize=12;startSize=8;endSize=8;dashed=1;" parent="HS7j6jXC8Mc_RY7dgrat-2" source="HS7j6jXC8Mc_RY7dgrat-86" target="HS7j6jXC8Mc_RY7dgrat-83" edge="1">
          <mxGeometry relative="1" as="geometry" />
        </mxCell>
        <mxCell id="HS7j6jXC8Mc_RY7dgrat-96" value="extend" style="edgeLabel;html=1;align=center;verticalAlign=middle;resizable=0;points=[];fontSize=12;" parent="HS7j6jXC8Mc_RY7dgrat-92" vertex="1" connectable="0">
          <mxGeometry x="-0.346" y="1" relative="1" as="geometry">
            <mxPoint as="offset" />
          </mxGeometry>
        </mxCell>
        <mxCell id="HS7j6jXC8Mc_RY7dgrat-86" value="Изменение стандартного размера вершин" style="rounded=0;whiteSpace=wrap;html=1;" parent="HS7j6jXC8Mc_RY7dgrat-2" vertex="1">
          <mxGeometry x="524" y="961.5" width="120" height="60" as="geometry" />
        </mxCell>
        <mxCell id="HS7j6jXC8Mc_RY7dgrat-93" style="edgeStyle=none;curved=1;rounded=0;orthogonalLoop=1;jettySize=auto;html=1;exitX=0;exitY=0.5;exitDx=0;exitDy=0;entryX=1;entryY=0.5;entryDx=0;entryDy=0;fontSize=12;startSize=8;endSize=8;dashed=1;" parent="HS7j6jXC8Mc_RY7dgrat-2" source="HS7j6jXC8Mc_RY7dgrat-87" target="HS7j6jXC8Mc_RY7dgrat-83" edge="1">
          <mxGeometry relative="1" as="geometry" />
        </mxCell>
        <mxCell id="HS7j6jXC8Mc_RY7dgrat-97" value="extend&amp;nbsp;" style="edgeLabel;html=1;align=center;verticalAlign=middle;resizable=0;points=[];fontSize=12;" parent="HS7j6jXC8Mc_RY7dgrat-93" vertex="1" connectable="0">
          <mxGeometry x="-0.0454" y="-1" relative="1" as="geometry">
            <mxPoint as="offset" />
          </mxGeometry>
        </mxCell>
        <mxCell id="HS7j6jXC8Mc_RY7dgrat-87" value="Изменение стандартного размера связей" style="rounded=0;whiteSpace=wrap;html=1;" parent="HS7j6jXC8Mc_RY7dgrat-2" vertex="1">
          <mxGeometry x="524" y="1052.5" width="120" height="60" as="geometry" />
        </mxCell>
        <mxCell id="HS7j6jXC8Mc_RY7dgrat-44" value="Components" style="swimlane;whiteSpace=wrap;html=1;startSize=23;" parent="1" vertex="1">
          <mxGeometry x="420" y="-194" width="2550" height="1193" as="geometry" />
        </mxCell>
        <mxCell id="HS7j6jXC8Mc_RY7dgrat-105" value="NavigationService" style="shape=module;align=left;spacingLeft=20;align=center;verticalAlign=top;whiteSpace=wrap;html=1;" parent="HS7j6jXC8Mc_RY7dgrat-44" vertex="1">
          <mxGeometry x="1686" y="335" width="123" height="44" as="geometry" />
        </mxCell>
        <mxCell id="HS7j6jXC8Mc_RY7dgrat-219" style="edgeStyle=orthogonalEdgeStyle;rounded=0;orthogonalLoop=1;jettySize=auto;html=1;exitX=1;exitY=0.5;exitDx=0;exitDy=0;exitPerimeter=0;entryX=0;entryY=0.5;entryDx=0;entryDy=0;fontSize=12;startSize=8;endSize=8;endArrow=none;endFill=0;" parent="HS7j6jXC8Mc_RY7dgrat-44" source="HS7j6jXC8Mc_RY7dgrat-109" target="HS7j6jXC8Mc_RY7dgrat-208" edge="1">
          <mxGeometry relative="1" as="geometry" />
        </mxCell>
        <mxCell id="HS7j6jXC8Mc_RY7dgrat-220" style="edgeStyle=orthogonalEdgeStyle;rounded=0;orthogonalLoop=1;jettySize=auto;html=1;exitX=1;exitY=0.5;exitDx=0;exitDy=0;exitPerimeter=0;entryX=1;entryY=0.75;entryDx=0;entryDy=0;fontSize=12;startSize=8;endSize=8;endArrow=none;endFill=0;" parent="HS7j6jXC8Mc_RY7dgrat-44" source="HS7j6jXC8Mc_RY7dgrat-109" target="HS7j6jXC8Mc_RY7dgrat-185" edge="1">
          <mxGeometry relative="1" as="geometry">
            <Array as="points">
              <mxPoint x="1928" y="357" />
              <mxPoint x="1928" y="122" />
            </Array>
          </mxGeometry>
        </mxCell>
        <mxCell id="HS7j6jXC8Mc_RY7dgrat-221" style="edgeStyle=orthogonalEdgeStyle;rounded=0;orthogonalLoop=1;jettySize=auto;html=1;exitX=1;exitY=0.5;exitDx=0;exitDy=0;exitPerimeter=0;entryX=1;entryY=0.75;entryDx=0;entryDy=0;fontSize=12;startSize=8;endSize=8;endArrow=none;endFill=0;" parent="HS7j6jXC8Mc_RY7dgrat-44" source="HS7j6jXC8Mc_RY7dgrat-109" target="HS7j6jXC8Mc_RY7dgrat-177" edge="1">
          <mxGeometry relative="1" as="geometry">
            <Array as="points">
              <mxPoint x="1928" y="357" />
              <mxPoint x="1928" y="304" />
              <mxPoint x="1614" y="304" />
              <mxPoint x="1614" y="313" />
            </Array>
          </mxGeometry>
        </mxCell>
        <mxCell id="HS7j6jXC8Mc_RY7dgrat-222" style="edgeStyle=orthogonalEdgeStyle;rounded=0;orthogonalLoop=1;jettySize=auto;html=1;exitX=1;exitY=0.5;exitDx=0;exitDy=0;exitPerimeter=0;entryX=1;entryY=0.75;entryDx=0;entryDy=0;fontSize=12;startSize=8;endSize=8;endArrow=none;endFill=0;" parent="HS7j6jXC8Mc_RY7dgrat-44" source="HS7j6jXC8Mc_RY7dgrat-109" target="HS7j6jXC8Mc_RY7dgrat-195" edge="1">
          <mxGeometry relative="1" as="geometry">
            <Array as="points">
              <mxPoint x="1928" y="357" />
              <mxPoint x="1928" y="524" />
            </Array>
          </mxGeometry>
        </mxCell>
        <mxCell id="HS7j6jXC8Mc_RY7dgrat-223" style="edgeStyle=orthogonalEdgeStyle;rounded=0;orthogonalLoop=1;jettySize=auto;html=1;exitX=1;exitY=0.5;exitDx=0;exitDy=0;exitPerimeter=0;entryX=1;entryY=0.75;entryDx=0;entryDy=0;fontSize=12;startSize=8;endSize=8;endArrow=none;endFill=0;" parent="HS7j6jXC8Mc_RY7dgrat-44" source="HS7j6jXC8Mc_RY7dgrat-109" target="HS7j6jXC8Mc_RY7dgrat-188" edge="1">
          <mxGeometry relative="1" as="geometry">
            <Array as="points">
              <mxPoint x="1928" y="357" />
              <mxPoint x="1928" y="445" />
              <mxPoint x="1454" y="445" />
              <mxPoint x="1454" y="523" />
            </Array>
          </mxGeometry>
        </mxCell>
        <mxCell id="HS7j6jXC8Mc_RY7dgrat-109" value="" style="shape=providedRequiredInterface;html=1;verticalLabelPosition=bottom;sketch=0;rotation=0;" parent="HS7j6jXC8Mc_RY7dgrat-44" vertex="1">
          <mxGeometry x="1886" y="347" width="20" height="20" as="geometry" />
        </mxCell>
        <mxCell id="HS7j6jXC8Mc_RY7dgrat-112" value="INavigationService" style="text;html=1;align=center;verticalAlign=middle;resizable=0;points=[];autosize=1;strokeColor=none;fillColor=none;fontSize=16;" parent="HS7j6jXC8Mc_RY7dgrat-44" vertex="1">
          <mxGeometry x="1760" y="304" width="151" height="31" as="geometry" />
        </mxCell>
        <mxCell id="HS7j6jXC8Mc_RY7dgrat-115" value="TestProvider" style="shape=module;align=left;spacingLeft=20;align=center;verticalAlign=top;whiteSpace=wrap;html=1;" parent="HS7j6jXC8Mc_RY7dgrat-44" vertex="1">
          <mxGeometry x="1295.5" y="822" width="123" height="44" as="geometry" />
        </mxCell>
        <mxCell id="HS7j6jXC8Mc_RY7dgrat-116" value="PracticProvider" style="shape=module;align=left;spacingLeft=20;align=center;verticalAlign=top;whiteSpace=wrap;html=1;" parent="HS7j6jXC8Mc_RY7dgrat-44" vertex="1">
          <mxGeometry x="1572" y="818" width="123" height="44" as="geometry" />
        </mxCell>
        <mxCell id="HS7j6jXC8Mc_RY7dgrat-201" style="edgeStyle=orthogonalEdgeStyle;rounded=0;orthogonalLoop=1;jettySize=auto;html=1;exitX=1;exitY=0.5;exitDx=0;exitDy=0;exitPerimeter=0;entryX=0;entryY=0.75;entryDx=0;entryDy=0;fontSize=12;startSize=8;endSize=8;endArrow=none;endFill=0;" parent="HS7j6jXC8Mc_RY7dgrat-44" source="HS7j6jXC8Mc_RY7dgrat-121" target="HS7j6jXC8Mc_RY7dgrat-177" edge="1">
          <mxGeometry relative="1" as="geometry">
            <Array as="points">
              <mxPoint x="1338" y="706" />
              <mxPoint x="1213" y="706" />
              <mxPoint x="1213" y="313" />
            </Array>
          </mxGeometry>
        </mxCell>
        <mxCell id="HS7j6jXC8Mc_RY7dgrat-203" style="edgeStyle=orthogonalEdgeStyle;rounded=0;orthogonalLoop=1;jettySize=auto;html=1;exitX=1;exitY=0.5;exitDx=0;exitDy=0;exitPerimeter=0;entryX=0.5;entryY=1;entryDx=0;entryDy=0;fontSize=12;startSize=8;endSize=8;endArrow=none;endFill=0;" parent="HS7j6jXC8Mc_RY7dgrat-44" source="HS7j6jXC8Mc_RY7dgrat-121" target="HS7j6jXC8Mc_RY7dgrat-188" edge="1">
          <mxGeometry relative="1" as="geometry" />
        </mxCell>
        <mxCell id="HS7j6jXC8Mc_RY7dgrat-121" value="" style="shape=providedRequiredInterface;html=1;verticalLabelPosition=bottom;sketch=0;rotation=-90;" parent="HS7j6jXC8Mc_RY7dgrat-44" vertex="1">
          <mxGeometry x="1327.5" y="723" width="20" height="20" as="geometry" />
        </mxCell>
        <mxCell id="HS7j6jXC8Mc_RY7dgrat-122" style="edgeStyle=orthogonalEdgeStyle;rounded=0;orthogonalLoop=1;jettySize=auto;html=1;exitX=1;exitY=0.5;exitDx=0;exitDy=0;entryX=0;entryY=0.5;entryDx=0;entryDy=0;entryPerimeter=0;fontSize=12;startSize=8;endSize=8;endArrow=none;endFill=0;" parent="HS7j6jXC8Mc_RY7dgrat-44" source="HS7j6jXC8Mc_RY7dgrat-115" target="HS7j6jXC8Mc_RY7dgrat-121" edge="1">
          <mxGeometry relative="1" as="geometry">
            <Array as="points">
              <mxPoint x="1438.5" y="844" />
              <mxPoint x="1438.5" y="760" />
              <mxPoint x="1337.5" y="760" />
            </Array>
          </mxGeometry>
        </mxCell>
        <mxCell id="HS7j6jXC8Mc_RY7dgrat-202" style="edgeStyle=orthogonalEdgeStyle;rounded=0;orthogonalLoop=1;jettySize=auto;html=1;exitX=1;exitY=0.5;exitDx=0;exitDy=0;exitPerimeter=0;entryX=0;entryY=0.75;entryDx=0;entryDy=0;fontSize=12;startSize=8;endSize=8;strokeWidth=1;endArrow=none;endFill=0;" parent="HS7j6jXC8Mc_RY7dgrat-44" source="HS7j6jXC8Mc_RY7dgrat-124" target="HS7j6jXC8Mc_RY7dgrat-177" edge="1">
          <mxGeometry relative="1" as="geometry">
            <Array as="points">
              <mxPoint x="1638" y="705" />
              <mxPoint x="1213" y="705" />
              <mxPoint x="1213" y="313" />
            </Array>
          </mxGeometry>
        </mxCell>
        <mxCell id="HS7j6jXC8Mc_RY7dgrat-204" style="edgeStyle=orthogonalEdgeStyle;rounded=0;orthogonalLoop=1;jettySize=auto;html=1;exitX=1;exitY=0.5;exitDx=0;exitDy=0;exitPerimeter=0;entryX=0.5;entryY=1;entryDx=0;entryDy=0;fontSize=12;startSize=8;endSize=8;endArrow=none;endFill=0;" parent="HS7j6jXC8Mc_RY7dgrat-44" source="HS7j6jXC8Mc_RY7dgrat-124" target="HS7j6jXC8Mc_RY7dgrat-195" edge="1">
          <mxGeometry relative="1" as="geometry" />
        </mxCell>
        <mxCell id="HS7j6jXC8Mc_RY7dgrat-124" value="" style="shape=providedRequiredInterface;html=1;verticalLabelPosition=bottom;sketch=0;rotation=-90;" parent="HS7j6jXC8Mc_RY7dgrat-44" vertex="1">
          <mxGeometry x="1628" y="719" width="20" height="20" as="geometry" />
        </mxCell>
        <mxCell id="HS7j6jXC8Mc_RY7dgrat-125" style="edgeStyle=orthogonalEdgeStyle;rounded=0;orthogonalLoop=1;jettySize=auto;html=1;exitX=1;exitY=0.5;exitDx=0;exitDy=0;entryX=0;entryY=0.5;entryDx=0;entryDy=0;entryPerimeter=0;fontSize=12;startSize=8;endSize=8;endArrow=none;endFill=0;" parent="HS7j6jXC8Mc_RY7dgrat-44" source="HS7j6jXC8Mc_RY7dgrat-116" target="HS7j6jXC8Mc_RY7dgrat-124" edge="1">
          <mxGeometry relative="1" as="geometry">
            <Array as="points">
              <mxPoint x="1715" y="840" />
              <mxPoint x="1715" y="756" />
              <mxPoint x="1638" y="756" />
            </Array>
          </mxGeometry>
        </mxCell>
        <mxCell id="HS7j6jXC8Mc_RY7dgrat-130" value="BinaryDataLoader" style="shape=module;align=left;spacingLeft=20;align=center;verticalAlign=top;whiteSpace=wrap;html=1;" parent="HS7j6jXC8Mc_RY7dgrat-44" vertex="1">
          <mxGeometry x="450" y="671" width="123" height="44" as="geometry" />
        </mxCell>
        <mxCell id="HS7j6jXC8Mc_RY7dgrat-131" value="BinaryDataSaver" style="shape=module;align=left;spacingLeft=20;align=center;verticalAlign=top;whiteSpace=wrap;html=1;" parent="HS7j6jXC8Mc_RY7dgrat-44" vertex="1">
          <mxGeometry x="450" y="772" width="123" height="44" as="geometry" />
        </mxCell>
        <mxCell id="HS7j6jXC8Mc_RY7dgrat-132" value="JsonDataLoader" style="shape=module;align=left;spacingLeft=20;align=center;verticalAlign=top;whiteSpace=wrap;html=1;" parent="HS7j6jXC8Mc_RY7dgrat-44" vertex="1">
          <mxGeometry x="456" y="948" width="123" height="44" as="geometry" />
        </mxCell>
        <mxCell id="HS7j6jXC8Mc_RY7dgrat-133" value="JsonDataSaver" style="shape=module;align=left;spacingLeft=20;align=center;verticalAlign=top;whiteSpace=wrap;html=1;" parent="HS7j6jXC8Mc_RY7dgrat-44" vertex="1">
          <mxGeometry x="456" y="1044" width="123" height="44" as="geometry" />
        </mxCell>
        <mxCell id="HS7j6jXC8Mc_RY7dgrat-134" value="BinaryDataHandler" style="shape=module;align=left;spacingLeft=20;align=center;verticalAlign=top;whiteSpace=wrap;html=1;" parent="HS7j6jXC8Mc_RY7dgrat-44" vertex="1">
          <mxGeometry x="729" y="715" width="147" height="44" as="geometry" />
        </mxCell>
        <mxCell id="HS7j6jXC8Mc_RY7dgrat-138" style="edgeStyle=orthogonalEdgeStyle;rounded=0;orthogonalLoop=1;jettySize=auto;html=1;exitX=1;exitY=0.5;exitDx=0;exitDy=0;exitPerimeter=0;entryX=0.25;entryY=0;entryDx=0;entryDy=0;fontSize=12;startSize=8;endSize=8;endArrow=none;endFill=0;" parent="HS7j6jXC8Mc_RY7dgrat-44" source="HS7j6jXC8Mc_RY7dgrat-135" target="HS7j6jXC8Mc_RY7dgrat-134" edge="1">
          <mxGeometry relative="1" as="geometry">
            <Array as="points">
              <mxPoint x="766" y="693" />
            </Array>
          </mxGeometry>
        </mxCell>
        <mxCell id="HS7j6jXC8Mc_RY7dgrat-135" value="" style="shape=providedRequiredInterface;html=1;verticalLabelPosition=bottom;sketch=0;" parent="HS7j6jXC8Mc_RY7dgrat-44" vertex="1">
          <mxGeometry x="651" y="683" width="20" height="20" as="geometry" />
        </mxCell>
        <mxCell id="HS7j6jXC8Mc_RY7dgrat-136" value="IDataLoader" style="text;html=1;align=center;verticalAlign=middle;resizable=0;points=[];autosize=1;strokeColor=none;fillColor=none;fontSize=16;" parent="HS7j6jXC8Mc_RY7dgrat-44" vertex="1">
          <mxGeometry x="608" y="703" width="106" height="31" as="geometry" />
        </mxCell>
        <mxCell id="HS7j6jXC8Mc_RY7dgrat-141" style="edgeStyle=orthogonalEdgeStyle;rounded=0;orthogonalLoop=1;jettySize=auto;html=1;exitX=1;exitY=0.5;exitDx=0;exitDy=0;exitPerimeter=0;entryX=0.25;entryY=1;entryDx=0;entryDy=0;fontSize=12;startSize=8;endSize=8;endArrow=none;endFill=0;" parent="HS7j6jXC8Mc_RY7dgrat-44" source="HS7j6jXC8Mc_RY7dgrat-139" target="HS7j6jXC8Mc_RY7dgrat-134" edge="1">
          <mxGeometry relative="1" as="geometry" />
        </mxCell>
        <mxCell id="HS7j6jXC8Mc_RY7dgrat-139" value="" style="shape=providedRequiredInterface;html=1;verticalLabelPosition=bottom;sketch=0;" parent="HS7j6jXC8Mc_RY7dgrat-44" vertex="1">
          <mxGeometry x="649" y="784" width="20" height="20" as="geometry" />
        </mxCell>
        <mxCell id="HS7j6jXC8Mc_RY7dgrat-140" style="edgeStyle=none;curved=1;rounded=0;orthogonalLoop=1;jettySize=auto;html=1;exitX=1;exitY=0.5;exitDx=0;exitDy=0;entryX=0;entryY=0.5;entryDx=0;entryDy=0;entryPerimeter=0;fontSize=12;startSize=8;endSize=8;endArrow=none;endFill=0;" parent="HS7j6jXC8Mc_RY7dgrat-44" source="HS7j6jXC8Mc_RY7dgrat-131" target="HS7j6jXC8Mc_RY7dgrat-139" edge="1">
          <mxGeometry relative="1" as="geometry" />
        </mxCell>
        <mxCell id="HS7j6jXC8Mc_RY7dgrat-142" value="IDataLoader" style="text;html=1;align=center;verticalAlign=middle;resizable=0;points=[];autosize=1;strokeColor=none;fillColor=none;fontSize=16;" parent="HS7j6jXC8Mc_RY7dgrat-44" vertex="1">
          <mxGeometry x="608" y="756" width="106" height="31" as="geometry" />
        </mxCell>
        <mxCell id="HS7j6jXC8Mc_RY7dgrat-205" style="edgeStyle=orthogonalEdgeStyle;rounded=0;orthogonalLoop=1;jettySize=auto;html=1;exitX=1;exitY=0.5;exitDx=0;exitDy=0;exitPerimeter=0;entryX=0.25;entryY=1;entryDx=0;entryDy=0;fontSize=12;startSize=8;endSize=8;endArrow=none;endFill=0;" parent="HS7j6jXC8Mc_RY7dgrat-44" source="HS7j6jXC8Mc_RY7dgrat-143" target="HS7j6jXC8Mc_RY7dgrat-115" edge="1">
          <mxGeometry relative="1" as="geometry">
            <Array as="points">
              <mxPoint x="1034" y="737" />
              <mxPoint x="1034" y="886" />
              <mxPoint x="1326" y="886" />
            </Array>
          </mxGeometry>
        </mxCell>
        <mxCell id="HS7j6jXC8Mc_RY7dgrat-206" style="edgeStyle=orthogonalEdgeStyle;rounded=0;orthogonalLoop=1;jettySize=auto;html=1;exitX=1;exitY=0.5;exitDx=0;exitDy=0;exitPerimeter=0;entryX=0.25;entryY=1;entryDx=0;entryDy=0;fontSize=12;startSize=8;endSize=8;endArrow=none;endFill=0;" parent="HS7j6jXC8Mc_RY7dgrat-44" source="HS7j6jXC8Mc_RY7dgrat-143" target="HS7j6jXC8Mc_RY7dgrat-116" edge="1">
          <mxGeometry relative="1" as="geometry">
            <Array as="points">
              <mxPoint x="1035" y="737" />
              <mxPoint x="1035" y="887" />
              <mxPoint x="1603" y="887" />
            </Array>
          </mxGeometry>
        </mxCell>
        <mxCell id="HS7j6jXC8Mc_RY7dgrat-143" value="" style="shape=providedRequiredInterface;html=1;verticalLabelPosition=bottom;sketch=0;" parent="HS7j6jXC8Mc_RY7dgrat-44" vertex="1">
          <mxGeometry x="925" y="727" width="20" height="20" as="geometry" />
        </mxCell>
        <mxCell id="HS7j6jXC8Mc_RY7dgrat-144" style="edgeStyle=none;curved=1;rounded=0;orthogonalLoop=1;jettySize=auto;html=1;exitX=1;exitY=0.5;exitDx=0;exitDy=0;entryX=0;entryY=0.5;entryDx=0;entryDy=0;entryPerimeter=0;fontSize=12;startSize=8;endSize=8;endArrow=none;endFill=0;" parent="HS7j6jXC8Mc_RY7dgrat-44" source="HS7j6jXC8Mc_RY7dgrat-134" target="HS7j6jXC8Mc_RY7dgrat-143" edge="1">
          <mxGeometry relative="1" as="geometry">
            <Array as="points">
              <mxPoint x="900" y="737" />
            </Array>
          </mxGeometry>
        </mxCell>
        <mxCell id="HS7j6jXC8Mc_RY7dgrat-145" value="IDataHandler" style="text;html=1;align=center;verticalAlign=middle;resizable=0;points=[];autosize=1;strokeColor=none;fillColor=none;fontSize=16;" parent="HS7j6jXC8Mc_RY7dgrat-44" vertex="1">
          <mxGeometry x="887" y="690" width="112" height="31" as="geometry" />
        </mxCell>
        <mxCell id="HS7j6jXC8Mc_RY7dgrat-146" value="JsonDataHandler" style="shape=module;align=left;spacingLeft=20;align=center;verticalAlign=top;whiteSpace=wrap;html=1;" parent="HS7j6jXC8Mc_RY7dgrat-44" vertex="1">
          <mxGeometry x="735" y="995" width="147" height="44" as="geometry" />
        </mxCell>
        <mxCell id="HS7j6jXC8Mc_RY7dgrat-151" style="edgeStyle=orthogonalEdgeStyle;rounded=0;orthogonalLoop=1;jettySize=auto;html=1;exitX=1;exitY=0.5;exitDx=0;exitDy=0;exitPerimeter=0;entryX=0.25;entryY=0;entryDx=0;entryDy=0;fontSize=12;startSize=8;endSize=8;endArrow=none;endFill=0;" parent="HS7j6jXC8Mc_RY7dgrat-44" source="HS7j6jXC8Mc_RY7dgrat-147" target="HS7j6jXC8Mc_RY7dgrat-146" edge="1">
          <mxGeometry relative="1" as="geometry" />
        </mxCell>
        <mxCell id="HS7j6jXC8Mc_RY7dgrat-147" value="" style="shape=providedRequiredInterface;html=1;verticalLabelPosition=bottom;sketch=0;" parent="HS7j6jXC8Mc_RY7dgrat-44" vertex="1">
          <mxGeometry x="655" y="960" width="20" height="20" as="geometry" />
        </mxCell>
        <mxCell id="HS7j6jXC8Mc_RY7dgrat-148" style="edgeStyle=none;curved=1;rounded=0;orthogonalLoop=1;jettySize=auto;html=1;exitX=1;exitY=0.5;exitDx=0;exitDy=0;entryX=0;entryY=0.5;entryDx=0;entryDy=0;entryPerimeter=0;fontSize=12;startSize=8;endSize=8;endArrow=none;endFill=0;" parent="HS7j6jXC8Mc_RY7dgrat-44" source="HS7j6jXC8Mc_RY7dgrat-132" target="HS7j6jXC8Mc_RY7dgrat-147" edge="1">
          <mxGeometry relative="1" as="geometry" />
        </mxCell>
        <mxCell id="HS7j6jXC8Mc_RY7dgrat-152" style="edgeStyle=orthogonalEdgeStyle;rounded=0;orthogonalLoop=1;jettySize=auto;html=1;exitX=1;exitY=0.5;exitDx=0;exitDy=0;exitPerimeter=0;entryX=0.25;entryY=1;entryDx=0;entryDy=0;fontSize=12;startSize=8;endSize=8;endArrow=none;endFill=0;" parent="HS7j6jXC8Mc_RY7dgrat-44" source="HS7j6jXC8Mc_RY7dgrat-149" target="HS7j6jXC8Mc_RY7dgrat-146" edge="1">
          <mxGeometry relative="1" as="geometry" />
        </mxCell>
        <mxCell id="HS7j6jXC8Mc_RY7dgrat-149" value="" style="shape=providedRequiredInterface;html=1;verticalLabelPosition=bottom;sketch=0;" parent="HS7j6jXC8Mc_RY7dgrat-44" vertex="1">
          <mxGeometry x="655" y="1056" width="20" height="20" as="geometry" />
        </mxCell>
        <mxCell id="HS7j6jXC8Mc_RY7dgrat-150" style="edgeStyle=none;curved=1;rounded=0;orthogonalLoop=1;jettySize=auto;html=1;exitX=1;exitY=0.5;exitDx=0;exitDy=0;entryX=0;entryY=0.5;entryDx=0;entryDy=0;entryPerimeter=0;fontSize=12;startSize=8;endSize=8;endArrow=none;endFill=0;" parent="HS7j6jXC8Mc_RY7dgrat-44" source="HS7j6jXC8Mc_RY7dgrat-133" target="HS7j6jXC8Mc_RY7dgrat-149" edge="1">
          <mxGeometry relative="1" as="geometry" />
        </mxCell>
        <mxCell id="HS7j6jXC8Mc_RY7dgrat-154" value="IDataLoader" style="text;html=1;align=center;verticalAlign=middle;resizable=0;points=[];autosize=1;strokeColor=none;fillColor=none;fontSize=16;" parent="HS7j6jXC8Mc_RY7dgrat-44" vertex="1">
          <mxGeometry x="612" y="980" width="106" height="31" as="geometry" />
        </mxCell>
        <mxCell id="HS7j6jXC8Mc_RY7dgrat-155" value="IDataLoader" style="text;html=1;align=center;verticalAlign=middle;resizable=0;points=[];autosize=1;strokeColor=none;fillColor=none;fontSize=16;" parent="HS7j6jXC8Mc_RY7dgrat-44" vertex="1">
          <mxGeometry x="614" y="1025" width="106" height="31" as="geometry" />
        </mxCell>
        <mxCell id="HS7j6jXC8Mc_RY7dgrat-156" value="" style="shape=providedRequiredInterface;html=1;verticalLabelPosition=bottom;sketch=0;" parent="HS7j6jXC8Mc_RY7dgrat-44" vertex="1">
          <mxGeometry x="910" y="1007" width="20" height="20" as="geometry" />
        </mxCell>
        <mxCell id="HS7j6jXC8Mc_RY7dgrat-157" style="edgeStyle=none;curved=1;rounded=0;orthogonalLoop=1;jettySize=auto;html=1;exitX=1;exitY=0.5;exitDx=0;exitDy=0;entryX=0;entryY=0.5;entryDx=0;entryDy=0;entryPerimeter=0;fontSize=12;startSize=8;endSize=8;endArrow=none;endFill=0;" parent="HS7j6jXC8Mc_RY7dgrat-44" source="HS7j6jXC8Mc_RY7dgrat-146" target="HS7j6jXC8Mc_RY7dgrat-156" edge="1">
          <mxGeometry relative="1" as="geometry" />
        </mxCell>
        <mxCell id="HS7j6jXC8Mc_RY7dgrat-158" value="IDataHandler" style="text;html=1;align=center;verticalAlign=middle;resizable=0;points=[];autosize=1;strokeColor=none;fillColor=none;fontSize=16;" parent="HS7j6jXC8Mc_RY7dgrat-44" vertex="1">
          <mxGeometry x="860" y="960" width="112" height="31" as="geometry" />
        </mxCell>
        <mxCell id="HS7j6jXC8Mc_RY7dgrat-162" style="edgeStyle=none;curved=1;rounded=0;orthogonalLoop=1;jettySize=auto;html=1;exitX=1;exitY=0.5;exitDx=0;exitDy=0;entryX=0;entryY=0.5;entryDx=0;entryDy=0;entryPerimeter=0;fontSize=12;startSize=8;endSize=8;endArrow=none;endFill=0;" parent="HS7j6jXC8Mc_RY7dgrat-44" source="HS7j6jXC8Mc_RY7dgrat-130" target="HS7j6jXC8Mc_RY7dgrat-135" edge="1">
          <mxGeometry relative="1" as="geometry" />
        </mxCell>
        <mxCell id="HS7j6jXC8Mc_RY7dgrat-163" value="Mapper" style="shape=module;align=left;spacingLeft=20;align=center;verticalAlign=top;whiteSpace=wrap;html=1;" parent="HS7j6jXC8Mc_RY7dgrat-44" vertex="1">
          <mxGeometry x="485" y="531" width="123" height="44" as="geometry" />
        </mxCell>
        <mxCell id="HS7j6jXC8Mc_RY7dgrat-167" style="edgeStyle=orthogonalEdgeStyle;rounded=0;orthogonalLoop=1;jettySize=auto;html=1;exitX=1;exitY=0.5;exitDx=0;exitDy=0;exitPerimeter=0;entryX=0.25;entryY=0;entryDx=0;entryDy=0;fontSize=12;startSize=8;endSize=8;endArrow=none;endFill=0;" parent="HS7j6jXC8Mc_RY7dgrat-44" source="HS7j6jXC8Mc_RY7dgrat-164" target="HS7j6jXC8Mc_RY7dgrat-130" edge="1">
          <mxGeometry relative="1" as="geometry">
            <Array as="points">
              <mxPoint x="689" y="553" />
              <mxPoint x="689" y="605" />
              <mxPoint x="481" y="605" />
            </Array>
          </mxGeometry>
        </mxCell>
        <mxCell id="HS7j6jXC8Mc_RY7dgrat-169" style="edgeStyle=orthogonalEdgeStyle;rounded=0;orthogonalLoop=1;jettySize=auto;html=1;exitX=1;exitY=0.5;exitDx=0;exitDy=0;exitPerimeter=0;entryX=0.25;entryY=0;entryDx=0;entryDy=0;fontSize=12;startSize=8;endSize=8;endArrow=none;endFill=0;" parent="HS7j6jXC8Mc_RY7dgrat-44" source="HS7j6jXC8Mc_RY7dgrat-164" target="HS7j6jXC8Mc_RY7dgrat-131" edge="1">
          <mxGeometry relative="1" as="geometry">
            <Array as="points">
              <mxPoint x="689" y="553" />
              <mxPoint x="689" y="605" />
              <mxPoint x="434" y="605" />
              <mxPoint x="434" y="755" />
              <mxPoint x="481" y="755" />
            </Array>
          </mxGeometry>
        </mxCell>
        <mxCell id="HS7j6jXC8Mc_RY7dgrat-170" style="edgeStyle=orthogonalEdgeStyle;rounded=0;orthogonalLoop=1;jettySize=auto;html=1;exitX=1;exitY=0.5;exitDx=0;exitDy=0;exitPerimeter=0;entryX=0.25;entryY=0;entryDx=0;entryDy=0;fontSize=12;startSize=8;endSize=8;endArrow=none;endFill=0;" parent="HS7j6jXC8Mc_RY7dgrat-44" source="HS7j6jXC8Mc_RY7dgrat-164" target="HS7j6jXC8Mc_RY7dgrat-132" edge="1">
          <mxGeometry relative="1" as="geometry">
            <Array as="points">
              <mxPoint x="689" y="553" />
              <mxPoint x="689" y="605" />
              <mxPoint x="434" y="605" />
              <mxPoint x="434" y="936" />
              <mxPoint x="487" y="936" />
            </Array>
          </mxGeometry>
        </mxCell>
        <mxCell id="HS7j6jXC8Mc_RY7dgrat-171" style="edgeStyle=orthogonalEdgeStyle;rounded=0;orthogonalLoop=1;jettySize=auto;html=1;exitX=1;exitY=0.5;exitDx=0;exitDy=0;exitPerimeter=0;entryX=0.25;entryY=0;entryDx=0;entryDy=0;fontSize=12;startSize=8;endSize=8;endArrow=none;endFill=0;" parent="HS7j6jXC8Mc_RY7dgrat-44" source="HS7j6jXC8Mc_RY7dgrat-164" target="HS7j6jXC8Mc_RY7dgrat-133" edge="1">
          <mxGeometry relative="1" as="geometry">
            <Array as="points">
              <mxPoint x="689" y="552" />
              <mxPoint x="689" y="605" />
              <mxPoint x="434" y="605" />
              <mxPoint x="434" y="1037" />
              <mxPoint x="487" y="1037" />
            </Array>
          </mxGeometry>
        </mxCell>
        <mxCell id="HS7j6jXC8Mc_RY7dgrat-164" value="" style="shape=providedRequiredInterface;html=1;verticalLabelPosition=bottom;sketch=0;" parent="HS7j6jXC8Mc_RY7dgrat-44" vertex="1">
          <mxGeometry x="635" y="543" width="20" height="20" as="geometry" />
        </mxCell>
        <mxCell id="HS7j6jXC8Mc_RY7dgrat-165" style="edgeStyle=none;curved=1;rounded=0;orthogonalLoop=1;jettySize=auto;html=1;exitX=1;exitY=0.5;exitDx=0;exitDy=0;entryX=0;entryY=0.5;entryDx=0;entryDy=0;entryPerimeter=0;fontSize=12;startSize=8;endSize=8;endArrow=none;endFill=0;" parent="HS7j6jXC8Mc_RY7dgrat-44" source="HS7j6jXC8Mc_RY7dgrat-163" target="HS7j6jXC8Mc_RY7dgrat-164" edge="1">
          <mxGeometry relative="1" as="geometry" />
        </mxCell>
        <mxCell id="HS7j6jXC8Mc_RY7dgrat-166" value="IMapper" style="text;html=1;align=center;verticalAlign=middle;resizable=0;points=[];autosize=1;strokeColor=none;fillColor=none;fontSize=16;" parent="HS7j6jXC8Mc_RY7dgrat-44" vertex="1">
          <mxGeometry x="620.5" y="507" width="77" height="31" as="geometry" />
        </mxCell>
        <mxCell id="HS7j6jXC8Mc_RY7dgrat-172" value="TheoryProvider" style="shape=module;align=left;spacingLeft=20;align=center;verticalAlign=top;whiteSpace=wrap;html=1;" parent="HS7j6jXC8Mc_RY7dgrat-44" vertex="1">
          <mxGeometry x="939" y="250" width="123" height="44" as="geometry" />
        </mxCell>
        <mxCell id="HS7j6jXC8Mc_RY7dgrat-179" style="edgeStyle=orthogonalEdgeStyle;rounded=0;orthogonalLoop=1;jettySize=auto;html=1;exitX=1;exitY=0.5;exitDx=0;exitDy=0;exitPerimeter=0;entryX=0;entryY=0.25;entryDx=0;entryDy=0;fontSize=12;startSize=8;endSize=8;endArrow=none;endFill=0;" parent="HS7j6jXC8Mc_RY7dgrat-44" source="HS7j6jXC8Mc_RY7dgrat-173" target="HS7j6jXC8Mc_RY7dgrat-177" edge="1">
          <mxGeometry relative="1" as="geometry" />
        </mxCell>
        <mxCell id="HS7j6jXC8Mc_RY7dgrat-173" value="" style="shape=providedRequiredInterface;html=1;verticalLabelPosition=bottom;sketch=0;rotation=0;" parent="HS7j6jXC8Mc_RY7dgrat-44" vertex="1">
          <mxGeometry x="1127" y="262" width="20" height="20" as="geometry" />
        </mxCell>
        <mxCell id="HS7j6jXC8Mc_RY7dgrat-174" style="edgeStyle=none;curved=1;rounded=0;orthogonalLoop=1;jettySize=auto;html=1;exitX=1;exitY=0.5;exitDx=0;exitDy=0;entryX=0;entryY=0.5;entryDx=0;entryDy=0;entryPerimeter=0;fontSize=12;startSize=8;endSize=8;endArrow=none;endFill=0;" parent="HS7j6jXC8Mc_RY7dgrat-44" source="HS7j6jXC8Mc_RY7dgrat-172" target="HS7j6jXC8Mc_RY7dgrat-173" edge="1">
          <mxGeometry relative="1" as="geometry" />
        </mxCell>
        <mxCell id="HS7j6jXC8Mc_RY7dgrat-176" value="ITheoryService" style="text;html=1;align=center;verticalAlign=middle;resizable=0;points=[];autosize=1;strokeColor=none;fillColor=none;fontSize=16;" parent="HS7j6jXC8Mc_RY7dgrat-44" vertex="1">
          <mxGeometry x="1064" y="234" width="126" height="31" as="geometry" />
        </mxCell>
        <mxCell id="HS7j6jXC8Mc_RY7dgrat-198" style="edgeStyle=orthogonalEdgeStyle;rounded=0;orthogonalLoop=1;jettySize=auto;html=1;exitX=0.5;exitY=1;exitDx=0;exitDy=0;entryX=0.5;entryY=0;entryDx=0;entryDy=0;fontSize=12;startSize=8;endSize=8;" parent="HS7j6jXC8Mc_RY7dgrat-44" source="HS7j6jXC8Mc_RY7dgrat-177" target="HS7j6jXC8Mc_RY7dgrat-195" edge="1">
          <mxGeometry relative="1" as="geometry" />
        </mxCell>
        <mxCell id="HS7j6jXC8Mc_RY7dgrat-177" value="&lt;font style=&quot;font-size: 15px;&quot;&gt;Окно отображения обучающего материала&lt;/font&gt;" style="html=1;dropTarget=0;whiteSpace=wrap;" parent="HS7j6jXC8Mc_RY7dgrat-44" vertex="1">
          <mxGeometry x="1410" y="254" width="182" height="78" as="geometry" />
        </mxCell>
        <mxCell id="HS7j6jXC8Mc_RY7dgrat-178" value="" style="shape=module;jettyWidth=8;jettyHeight=4;" parent="HS7j6jXC8Mc_RY7dgrat-177" vertex="1">
          <mxGeometry x="1" width="20" height="20" relative="1" as="geometry">
            <mxPoint x="-27" y="7" as="offset" />
          </mxGeometry>
        </mxCell>
        <mxCell id="HS7j6jXC8Mc_RY7dgrat-190" style="edgeStyle=orthogonalEdgeStyle;rounded=0;orthogonalLoop=1;jettySize=auto;html=1;exitX=0.5;exitY=1;exitDx=0;exitDy=0;entryX=0.5;entryY=0;entryDx=0;entryDy=0;fontSize=12;startSize=8;endSize=8;" parent="HS7j6jXC8Mc_RY7dgrat-44" source="HS7j6jXC8Mc_RY7dgrat-185" target="HS7j6jXC8Mc_RY7dgrat-177" edge="1">
          <mxGeometry relative="1" as="geometry" />
        </mxCell>
        <mxCell id="HS7j6jXC8Mc_RY7dgrat-233" style="edgeStyle=orthogonalEdgeStyle;rounded=0;orthogonalLoop=1;jettySize=auto;html=1;exitX=0.5;exitY=1;exitDx=0;exitDy=0;entryX=0.5;entryY=0;entryDx=0;entryDy=0;fontSize=12;startSize=8;endSize=8;" parent="HS7j6jXC8Mc_RY7dgrat-44" source="HS7j6jXC8Mc_RY7dgrat-185" target="HS7j6jXC8Mc_RY7dgrat-231" edge="1">
          <mxGeometry relative="1" as="geometry" />
        </mxCell>
        <mxCell id="HS7j6jXC8Mc_RY7dgrat-185" value="&lt;font style=&quot;font-size: 15px;&quot;&gt;Главное меню&lt;/font&gt;" style="html=1;dropTarget=0;whiteSpace=wrap;" parent="HS7j6jXC8Mc_RY7dgrat-44" vertex="1">
          <mxGeometry x="1678" y="63" width="182" height="78" as="geometry" />
        </mxCell>
        <mxCell id="HS7j6jXC8Mc_RY7dgrat-186" value="" style="shape=module;jettyWidth=8;jettyHeight=4;" parent="HS7j6jXC8Mc_RY7dgrat-185" vertex="1">
          <mxGeometry x="1" width="20" height="20" relative="1" as="geometry">
            <mxPoint x="-27" y="7" as="offset" />
          </mxGeometry>
        </mxCell>
        <mxCell id="HS7j6jXC8Mc_RY7dgrat-188" value="&lt;span style=&quot;font-size: 15px;&quot;&gt;Отображение теста&lt;/span&gt;" style="html=1;dropTarget=0;whiteSpace=wrap;" parent="HS7j6jXC8Mc_RY7dgrat-44" vertex="1">
          <mxGeometry x="1244" y="465" width="182" height="78" as="geometry" />
        </mxCell>
        <mxCell id="HS7j6jXC8Mc_RY7dgrat-189" value="" style="shape=module;jettyWidth=8;jettyHeight=4;" parent="HS7j6jXC8Mc_RY7dgrat-188" vertex="1">
          <mxGeometry x="1" width="20" height="20" relative="1" as="geometry">
            <mxPoint x="-27" y="7" as="offset" />
          </mxGeometry>
        </mxCell>
        <mxCell id="HS7j6jXC8Mc_RY7dgrat-191" style="edgeStyle=orthogonalEdgeStyle;rounded=0;orthogonalLoop=1;jettySize=auto;html=1;exitX=0.5;exitY=1;exitDx=0;exitDy=0;entryX=0.456;entryY=0.026;entryDx=0;entryDy=0;entryPerimeter=0;fontSize=12;startSize=8;endSize=8;" parent="HS7j6jXC8Mc_RY7dgrat-44" source="HS7j6jXC8Mc_RY7dgrat-177" target="HS7j6jXC8Mc_RY7dgrat-188" edge="1">
          <mxGeometry relative="1" as="geometry" />
        </mxCell>
        <mxCell id="HS7j6jXC8Mc_RY7dgrat-195" value="&lt;span style=&quot;font-size: 15px;&quot;&gt;Отображение практического задания&lt;/span&gt;" style="html=1;dropTarget=0;whiteSpace=wrap;" parent="HS7j6jXC8Mc_RY7dgrat-44" vertex="1">
          <mxGeometry x="1533" y="465" width="182" height="78" as="geometry" />
        </mxCell>
        <mxCell id="HS7j6jXC8Mc_RY7dgrat-196" value="" style="shape=module;jettyWidth=8;jettyHeight=4;" parent="HS7j6jXC8Mc_RY7dgrat-195" vertex="1">
          <mxGeometry x="1" width="20" height="20" relative="1" as="geometry">
            <mxPoint x="-27" y="7" as="offset" />
          </mxGeometry>
        </mxCell>
        <mxCell id="HS7j6jXC8Mc_RY7dgrat-199" value="IPracticProvider" style="text;html=1;align=center;verticalAlign=middle;resizable=0;points=[];autosize=1;strokeColor=none;fillColor=none;fontSize=16;" parent="HS7j6jXC8Mc_RY7dgrat-44" vertex="1">
          <mxGeometry x="1578" y="762" width="131" height="31" as="geometry" />
        </mxCell>
        <mxCell id="HS7j6jXC8Mc_RY7dgrat-200" value="ITestProvider" style="text;html=1;align=center;verticalAlign=middle;resizable=0;points=[];autosize=1;strokeColor=none;fillColor=none;fontSize=16;" parent="HS7j6jXC8Mc_RY7dgrat-44" vertex="1">
          <mxGeometry x="1318.5" y="770" width="111" height="31" as="geometry" />
        </mxCell>
        <mxCell id="HS7j6jXC8Mc_RY7dgrat-208" value="&lt;span style=&quot;font-size: 15px;&quot;&gt;Окно создания графа&lt;/span&gt;" style="html=1;dropTarget=0;whiteSpace=wrap;" parent="HS7j6jXC8Mc_RY7dgrat-44" vertex="1">
          <mxGeometry x="2026" y="465" width="182" height="78" as="geometry" />
        </mxCell>
        <mxCell id="HS7j6jXC8Mc_RY7dgrat-209" value="" style="shape=module;jettyWidth=8;jettyHeight=4;" parent="HS7j6jXC8Mc_RY7dgrat-208" vertex="1">
          <mxGeometry x="1" width="20" height="20" relative="1" as="geometry">
            <mxPoint x="-27" y="7" as="offset" />
          </mxGeometry>
        </mxCell>
        <mxCell id="HS7j6jXC8Mc_RY7dgrat-212" style="edgeStyle=orthogonalEdgeStyle;rounded=0;orthogonalLoop=1;jettySize=auto;html=1;exitX=1;exitY=0.5;exitDx=0;exitDy=0;entryX=0;entryY=0.5;entryDx=0;entryDy=0;entryPerimeter=0;fontSize=12;startSize=8;endSize=8;endArrow=none;endFill=0;" parent="HS7j6jXC8Mc_RY7dgrat-44" source="HS7j6jXC8Mc_RY7dgrat-105" target="HS7j6jXC8Mc_RY7dgrat-109" edge="1">
          <mxGeometry relative="1" as="geometry" />
        </mxCell>
        <mxCell id="HS7j6jXC8Mc_RY7dgrat-225" value="AccessСontrol" style="shape=module;align=left;spacingLeft=20;align=center;verticalAlign=top;whiteSpace=wrap;html=1;" parent="HS7j6jXC8Mc_RY7dgrat-44" vertex="1">
          <mxGeometry x="948" y="141" width="123" height="44" as="geometry" />
        </mxCell>
        <mxCell id="HS7j6jXC8Mc_RY7dgrat-229" style="edgeStyle=orthogonalEdgeStyle;rounded=0;orthogonalLoop=1;jettySize=auto;html=1;exitX=1;exitY=0.5;exitDx=0;exitDy=0;exitPerimeter=0;entryX=0;entryY=0.25;entryDx=0;entryDy=0;fontSize=12;startSize=8;endSize=8;endArrow=none;endFill=0;" parent="HS7j6jXC8Mc_RY7dgrat-44" source="HS7j6jXC8Mc_RY7dgrat-227" target="HS7j6jXC8Mc_RY7dgrat-177" edge="1">
          <mxGeometry relative="1" as="geometry" />
        </mxCell>
        <mxCell id="HS7j6jXC8Mc_RY7dgrat-227" value="" style="shape=providedRequiredInterface;html=1;verticalLabelPosition=bottom;sketch=0;" parent="HS7j6jXC8Mc_RY7dgrat-44" vertex="1">
          <mxGeometry x="1127" y="153" width="20" height="20" as="geometry" />
        </mxCell>
        <mxCell id="HS7j6jXC8Mc_RY7dgrat-228" style="edgeStyle=none;curved=1;rounded=0;orthogonalLoop=1;jettySize=auto;html=1;exitX=1;exitY=0.5;exitDx=0;exitDy=0;entryX=0;entryY=0.5;entryDx=0;entryDy=0;entryPerimeter=0;fontSize=12;startSize=8;endSize=8;endArrow=none;endFill=0;" parent="HS7j6jXC8Mc_RY7dgrat-44" source="HS7j6jXC8Mc_RY7dgrat-225" target="HS7j6jXC8Mc_RY7dgrat-227" edge="1">
          <mxGeometry relative="1" as="geometry" />
        </mxCell>
        <mxCell id="HS7j6jXC8Mc_RY7dgrat-230" value="IAccessControl" style="text;html=1;align=center;verticalAlign=middle;resizable=0;points=[];autosize=1;strokeColor=none;fillColor=none;fontSize=16;" parent="HS7j6jXC8Mc_RY7dgrat-44" vertex="1">
          <mxGeometry x="1082" y="118" width="126" height="31" as="geometry" />
        </mxCell>
        <mxCell id="HS7j6jXC8Mc_RY7dgrat-231" value="&lt;span style=&quot;font-size: 15px;&quot;&gt;Окно настроек&lt;/span&gt;" style="html=1;dropTarget=0;whiteSpace=wrap;" parent="HS7j6jXC8Mc_RY7dgrat-44" vertex="1">
          <mxGeometry x="2103" y="254" width="182" height="78" as="geometry" />
        </mxCell>
        <mxCell id="HS7j6jXC8Mc_RY7dgrat-232" value="" style="shape=module;jettyWidth=8;jettyHeight=4;" parent="HS7j6jXC8Mc_RY7dgrat-231" vertex="1">
          <mxGeometry x="1" width="20" height="20" relative="1" as="geometry">
            <mxPoint x="-27" y="7" as="offset" />
          </mxGeometry>
        </mxCell>
        <mxCell id="d6C7AB8cnqzrk_Mo-MiM-2" value="Classes" style="swimlane;whiteSpace=wrap;html=1;" parent="1" vertex="1">
          <mxGeometry x="3095" y="-194" width="3355" height="1450" as="geometry">
            <mxRectangle x="3095" y="-194" width="35" height="23" as="alternateBounds" />
          </mxGeometry>
        </mxCell>
        <mxCell id="d6C7AB8cnqzrk_Mo-MiM-3" value="NavigationService" style="swimlane;fontStyle=1;align=center;verticalAlign=top;childLayout=stackLayout;horizontal=1;startSize=26;horizontalStack=0;resizeParent=1;resizeParentMax=0;resizeLast=0;collapsible=1;marginBottom=0;whiteSpace=wrap;html=1;" parent="d6C7AB8cnqzrk_Mo-MiM-2" vertex="1">
          <mxGeometry x="954" y="878" width="282" height="138" as="geometry" />
        </mxCell>
        <mxCell id="d6C7AB8cnqzrk_Mo-MiM-8" value="PropertyChanged: PropertyChangedEventHandler" style="text;strokeColor=none;fillColor=none;align=left;verticalAlign=top;spacingLeft=4;spacingRight=4;overflow=hidden;rotatable=0;points=[[0,0.5],[1,0.5]];portConstraint=eastwest;whiteSpace=wrap;html=1;" parent="d6C7AB8cnqzrk_Mo-MiM-3" vertex="1">
          <mxGeometry y="26" width="282" height="26" as="geometry" />
        </mxCell>
        <mxCell id="d6C7AB8cnqzrk_Mo-MiM-4" value="CurrentView: ViewModel" style="text;strokeColor=none;fillColor=none;align=left;verticalAlign=top;spacingLeft=4;spacingRight=4;overflow=hidden;rotatable=0;points=[[0,0.5],[1,0.5]];portConstraint=eastwest;whiteSpace=wrap;html=1;" parent="d6C7AB8cnqzrk_Mo-MiM-3" vertex="1">
          <mxGeometry y="52" width="282" height="26" as="geometry" />
        </mxCell>
        <mxCell id="d6C7AB8cnqzrk_Mo-MiM-5" value="" style="line;strokeWidth=1;fillColor=none;align=left;verticalAlign=middle;spacingTop=-1;spacingLeft=3;spacingRight=3;rotatable=0;labelPosition=right;points=[];portConstraint=eastwest;strokeColor=inherit;" parent="d6C7AB8cnqzrk_Mo-MiM-3" vertex="1">
          <mxGeometry y="78" width="282" height="8" as="geometry" />
        </mxCell>
        <mxCell id="d6C7AB8cnqzrk_Mo-MiM-6" value="NavigateTo&amp;lt;TView&amp;gt;(): void" style="text;strokeColor=none;fillColor=none;align=left;verticalAlign=top;spacingLeft=4;spacingRight=4;overflow=hidden;rotatable=0;points=[[0,0.5],[1,0.5]];portConstraint=eastwest;whiteSpace=wrap;html=1;" parent="d6C7AB8cnqzrk_Mo-MiM-3" vertex="1">
          <mxGeometry y="86" width="282" height="26" as="geometry" />
        </mxCell>
        <mxCell id="d6C7AB8cnqzrk_Mo-MiM-7" value="NavigateTo(): void" style="text;strokeColor=none;fillColor=none;align=left;verticalAlign=top;spacingLeft=4;spacingRight=4;overflow=hidden;rotatable=0;points=[[0,0.5],[1,0.5]];portConstraint=eastwest;whiteSpace=wrap;html=1;" parent="d6C7AB8cnqzrk_Mo-MiM-3" vertex="1">
          <mxGeometry y="112" width="282" height="26" as="geometry" />
        </mxCell>
        <mxCell id="d6C7AB8cnqzrk_Mo-MiM-9" value="AccessControlService&amp;nbsp;" style="swimlane;fontStyle=1;align=center;verticalAlign=top;childLayout=stackLayout;horizontal=1;startSize=26;horizontalStack=0;resizeParent=1;resizeParentMax=0;resizeLast=0;collapsible=1;marginBottom=0;whiteSpace=wrap;html=1;" parent="d6C7AB8cnqzrk_Mo-MiM-2" vertex="1">
          <mxGeometry x="1717" y="986" width="463" height="126" as="geometry" />
        </mxCell>
        <mxCell id="d6C7AB8cnqzrk_Mo-MiM-12" value="" style="line;strokeWidth=1;fillColor=none;align=left;verticalAlign=middle;spacingTop=-1;spacingLeft=3;spacingRight=3;rotatable=0;labelPosition=right;points=[];portConstraint=eastwest;strokeColor=inherit;" parent="d6C7AB8cnqzrk_Mo-MiM-9" vertex="1">
          <mxGeometry y="26" width="463" height="8" as="geometry" />
        </mxCell>
        <mxCell id="d6C7AB8cnqzrk_Mo-MiM-13" value="CheckCanGetMaterial(EducationalMaterial material): bool" style="text;strokeColor=none;fillColor=none;align=left;verticalAlign=top;spacingLeft=4;spacingRight=4;overflow=hidden;rotatable=0;points=[[0,0.5],[1,0.5]];portConstraint=eastwest;whiteSpace=wrap;html=1;" parent="d6C7AB8cnqzrk_Mo-MiM-9" vertex="1">
          <mxGeometry y="34" width="463" height="26" as="geometry" />
        </mxCell>
        <mxCell id="d6C7AB8cnqzrk_Mo-MiM-14" value="GetMaterial(EducationalMaterial material): EducationalMaterial" style="text;strokeColor=none;fillColor=none;align=left;verticalAlign=top;spacingLeft=4;spacingRight=4;overflow=hidden;rotatable=0;points=[[0,0.5],[1,0.5]];portConstraint=eastwest;whiteSpace=wrap;html=1;" parent="d6C7AB8cnqzrk_Mo-MiM-9" vertex="1">
          <mxGeometry y="60" width="463" height="33" as="geometry" />
        </mxCell>
        <mxCell id="d6C7AB8cnqzrk_Mo-MiM-15" value="OpenNext(EducationalMaterial): void" style="text;strokeColor=none;fillColor=none;align=left;verticalAlign=top;spacingLeft=4;spacingRight=4;overflow=hidden;rotatable=0;points=[[0,0.5],[1,0.5]];portConstraint=eastwest;whiteSpace=wrap;html=1;" parent="d6C7AB8cnqzrk_Mo-MiM-9" vertex="1">
          <mxGeometry y="93" width="463" height="33" as="geometry" />
        </mxCell>
        <mxCell id="d6C7AB8cnqzrk_Mo-MiM-16" value="TheoryProvider" style="swimlane;fontStyle=1;align=center;verticalAlign=top;childLayout=stackLayout;horizontal=1;startSize=26;horizontalStack=0;resizeParent=1;resizeParentMax=0;resizeLast=0;collapsible=1;marginBottom=0;whiteSpace=wrap;html=1;" parent="d6C7AB8cnqzrk_Mo-MiM-2" vertex="1">
          <mxGeometry x="1686" y="1131" width="282" height="86" as="geometry" />
        </mxCell>
        <mxCell id="d6C7AB8cnqzrk_Mo-MiM-17" value="TheoryList: List&amp;lt;UserConstrol&amp;gt;" style="text;strokeColor=none;fillColor=none;align=left;verticalAlign=top;spacingLeft=4;spacingRight=4;overflow=hidden;rotatable=0;points=[[0,0.5],[1,0.5]];portConstraint=eastwest;whiteSpace=wrap;html=1;" parent="d6C7AB8cnqzrk_Mo-MiM-16" vertex="1">
          <mxGeometry y="26" width="282" height="26" as="geometry" />
        </mxCell>
        <mxCell id="tLaI_0GgtARf6P8ylGyM-133" value="CurrentTheory: UserConstrol" style="text;strokeColor=none;fillColor=none;align=left;verticalAlign=top;spacingLeft=4;spacingRight=4;overflow=hidden;rotatable=0;points=[[0,0.5],[1,0.5]];portConstraint=eastwest;whiteSpace=wrap;html=1;" parent="d6C7AB8cnqzrk_Mo-MiM-16" vertex="1">
          <mxGeometry y="52" width="282" height="26" as="geometry" />
        </mxCell>
        <mxCell id="d6C7AB8cnqzrk_Mo-MiM-19" value="" style="line;strokeWidth=1;fillColor=none;align=left;verticalAlign=middle;spacingTop=-1;spacingLeft=3;spacingRight=3;rotatable=0;labelPosition=right;points=[];portConstraint=eastwest;strokeColor=inherit;" parent="d6C7AB8cnqzrk_Mo-MiM-16" vertex="1">
          <mxGeometry y="78" width="282" height="8" as="geometry" />
        </mxCell>
        <mxCell id="d6C7AB8cnqzrk_Mo-MiM-22" value="Mapper" style="swimlane;fontStyle=1;align=center;verticalAlign=top;childLayout=stackLayout;horizontal=1;startSize=26;horizontalStack=0;resizeParent=1;resizeParentMax=0;resizeLast=0;collapsible=1;marginBottom=0;whiteSpace=wrap;html=1;" parent="d6C7AB8cnqzrk_Mo-MiM-2" vertex="1">
          <mxGeometry x="22" y="1001" width="464" height="86" as="geometry" />
        </mxCell>
        <mxCell id="d6C7AB8cnqzrk_Mo-MiM-24" value="" style="line;strokeWidth=1;fillColor=none;align=left;verticalAlign=middle;spacingTop=-1;spacingLeft=3;spacingRight=3;rotatable=0;labelPosition=right;points=[];portConstraint=eastwest;strokeColor=inherit;" parent="d6C7AB8cnqzrk_Mo-MiM-22" vertex="1">
          <mxGeometry y="26" width="464" height="8" as="geometry" />
        </mxCell>
        <mxCell id="d6C7AB8cnqzrk_Mo-MiM-26" value="CreateMap&amp;lt;TSource, TReciver&amp;gt;(Func&amp;lt;object, object, TReceiver&amp;gt; factory): void" style="text;strokeColor=none;fillColor=none;align=left;verticalAlign=top;spacingLeft=4;spacingRight=4;overflow=hidden;rotatable=0;points=[[0,0.5],[1,0.5]];portConstraint=eastwest;whiteSpace=wrap;html=1;" parent="d6C7AB8cnqzrk_Mo-MiM-22" vertex="1">
          <mxGeometry y="34" width="464" height="26" as="geometry" />
        </mxCell>
        <mxCell id="d6C7AB8cnqzrk_Mo-MiM-27" value="Map&amp;lt;TReceiver&amp;gt;(object source, object param): TReciver" style="text;strokeColor=none;fillColor=none;align=left;verticalAlign=top;spacingLeft=4;spacingRight=4;overflow=hidden;rotatable=0;points=[[0,0.5],[1,0.5]];portConstraint=eastwest;whiteSpace=wrap;html=1;" parent="d6C7AB8cnqzrk_Mo-MiM-22" vertex="1">
          <mxGeometry y="60" width="464" height="26" as="geometry" />
        </mxCell>
        <mxCell id="d6C7AB8cnqzrk_Mo-MiM-28" value="BinaryDataLoader" style="swimlane;fontStyle=1;align=center;verticalAlign=top;childLayout=stackLayout;horizontal=1;startSize=26;horizontalStack=0;resizeParent=1;resizeParentMax=0;resizeLast=0;collapsible=1;marginBottom=0;whiteSpace=wrap;html=1;" parent="d6C7AB8cnqzrk_Mo-MiM-2" vertex="1">
          <mxGeometry x="894" y="63" width="282" height="60" as="geometry" />
        </mxCell>
        <mxCell id="d6C7AB8cnqzrk_Mo-MiM-31" value="" style="line;strokeWidth=1;fillColor=none;align=left;verticalAlign=middle;spacingTop=-1;spacingLeft=3;spacingRight=3;rotatable=0;labelPosition=right;points=[];portConstraint=eastwest;strokeColor=inherit;" parent="d6C7AB8cnqzrk_Mo-MiM-28" vertex="1">
          <mxGeometry y="26" width="282" height="8" as="geometry" />
        </mxCell>
        <mxCell id="d6C7AB8cnqzrk_Mo-MiM-32" value="Load&amp;lt;TLoad&amp;gt;(string path): TLoad" style="text;strokeColor=none;fillColor=none;align=left;verticalAlign=top;spacingLeft=4;spacingRight=4;overflow=hidden;rotatable=0;points=[[0,0.5],[1,0.5]];portConstraint=eastwest;whiteSpace=wrap;html=1;" parent="d6C7AB8cnqzrk_Mo-MiM-28" vertex="1">
          <mxGeometry y="34" width="282" height="26" as="geometry" />
        </mxCell>
        <mxCell id="d6C7AB8cnqzrk_Mo-MiM-39" value="BinaryDataSaver" style="swimlane;fontStyle=1;align=center;verticalAlign=top;childLayout=stackLayout;horizontal=1;startSize=26;horizontalStack=0;resizeParent=1;resizeParentMax=0;resizeLast=0;collapsible=1;marginBottom=0;whiteSpace=wrap;html=1;" parent="d6C7AB8cnqzrk_Mo-MiM-2" vertex="1">
          <mxGeometry x="407" y="72" width="297" height="60" as="geometry" />
        </mxCell>
        <mxCell id="d6C7AB8cnqzrk_Mo-MiM-40" value="" style="line;strokeWidth=1;fillColor=none;align=left;verticalAlign=middle;spacingTop=-1;spacingLeft=3;spacingRight=3;rotatable=0;labelPosition=right;points=[];portConstraint=eastwest;strokeColor=inherit;" parent="d6C7AB8cnqzrk_Mo-MiM-39" vertex="1">
          <mxGeometry y="26" width="297" height="8" as="geometry" />
        </mxCell>
        <mxCell id="d6C7AB8cnqzrk_Mo-MiM-41" value="Load&amp;lt;TSave&amp;gt;(TSave): void" style="text;strokeColor=none;fillColor=none;align=left;verticalAlign=top;spacingLeft=4;spacingRight=4;overflow=hidden;rotatable=0;points=[[0,0.5],[1,0.5]];portConstraint=eastwest;whiteSpace=wrap;html=1;" parent="d6C7AB8cnqzrk_Mo-MiM-39" vertex="1">
          <mxGeometry y="34" width="297" height="26" as="geometry" />
        </mxCell>
        <mxCell id="d6C7AB8cnqzrk_Mo-MiM-42" value="JsonDataLoader" style="swimlane;fontStyle=1;align=center;verticalAlign=top;childLayout=stackLayout;horizontal=1;startSize=26;horizontalStack=0;resizeParent=1;resizeParentMax=0;resizeLast=0;collapsible=1;marginBottom=0;whiteSpace=wrap;html=1;" parent="d6C7AB8cnqzrk_Mo-MiM-2" vertex="1">
          <mxGeometry x="352" y="547" width="282" height="60" as="geometry" />
        </mxCell>
        <mxCell id="d6C7AB8cnqzrk_Mo-MiM-43" value="" style="line;strokeWidth=1;fillColor=none;align=left;verticalAlign=middle;spacingTop=-1;spacingLeft=3;spacingRight=3;rotatable=0;labelPosition=right;points=[];portConstraint=eastwest;strokeColor=inherit;" parent="d6C7AB8cnqzrk_Mo-MiM-42" vertex="1">
          <mxGeometry y="26" width="282" height="8" as="geometry" />
        </mxCell>
        <mxCell id="d6C7AB8cnqzrk_Mo-MiM-44" value="Load&amp;lt;TLoad&amp;gt;(string path): TLoad" style="text;strokeColor=none;fillColor=none;align=left;verticalAlign=top;spacingLeft=4;spacingRight=4;overflow=hidden;rotatable=0;points=[[0,0.5],[1,0.5]];portConstraint=eastwest;whiteSpace=wrap;html=1;" parent="d6C7AB8cnqzrk_Mo-MiM-42" vertex="1">
          <mxGeometry y="34" width="282" height="26" as="geometry" />
        </mxCell>
        <mxCell id="d6C7AB8cnqzrk_Mo-MiM-45" value="JsonDataSaver" style="swimlane;fontStyle=1;align=center;verticalAlign=top;childLayout=stackLayout;horizontal=1;startSize=26;horizontalStack=0;resizeParent=1;resizeParentMax=0;resizeLast=0;collapsible=1;marginBottom=0;whiteSpace=wrap;html=1;" parent="d6C7AB8cnqzrk_Mo-MiM-2" vertex="1">
          <mxGeometry x="16" y="547" width="282" height="60" as="geometry" />
        </mxCell>
        <mxCell id="d6C7AB8cnqzrk_Mo-MiM-46" value="" style="line;strokeWidth=1;fillColor=none;align=left;verticalAlign=middle;spacingTop=-1;spacingLeft=3;spacingRight=3;rotatable=0;labelPosition=right;points=[];portConstraint=eastwest;strokeColor=inherit;" parent="d6C7AB8cnqzrk_Mo-MiM-45" vertex="1">
          <mxGeometry y="26" width="282" height="8" as="geometry" />
        </mxCell>
        <mxCell id="d6C7AB8cnqzrk_Mo-MiM-47" value="Load&amp;lt;TSave&amp;gt;(TSave): void" style="text;strokeColor=none;fillColor=none;align=left;verticalAlign=top;spacingLeft=4;spacingRight=4;overflow=hidden;rotatable=0;points=[[0,0.5],[1,0.5]];portConstraint=eastwest;whiteSpace=wrap;html=1;" parent="d6C7AB8cnqzrk_Mo-MiM-45" vertex="1">
          <mxGeometry y="34" width="282" height="26" as="geometry" />
        </mxCell>
        <mxCell id="d6C7AB8cnqzrk_Mo-MiM-48" value="JsonDataHandler" style="swimlane;fontStyle=1;align=center;verticalAlign=top;childLayout=stackLayout;horizontal=1;startSize=26;horizontalStack=0;resizeParent=1;resizeParentMax=0;resizeLast=0;collapsible=1;marginBottom=0;whiteSpace=wrap;html=1;" parent="d6C7AB8cnqzrk_Mo-MiM-2" vertex="1">
          <mxGeometry x="178" y="720" width="282" height="86" as="geometry" />
        </mxCell>
        <mxCell id="d6C7AB8cnqzrk_Mo-MiM-49" value="" style="line;strokeWidth=1;fillColor=none;align=left;verticalAlign=middle;spacingTop=-1;spacingLeft=3;spacingRight=3;rotatable=0;labelPosition=right;points=[];portConstraint=eastwest;strokeColor=inherit;" parent="d6C7AB8cnqzrk_Mo-MiM-48" vertex="1">
          <mxGeometry y="26" width="282" height="8" as="geometry" />
        </mxCell>
        <mxCell id="d6C7AB8cnqzrk_Mo-MiM-51" value="Load&amp;lt;TLoad&amp;gt;(TSave): TLoad" style="text;strokeColor=none;fillColor=none;align=left;verticalAlign=top;spacingLeft=4;spacingRight=4;overflow=hidden;rotatable=0;points=[[0,0.5],[1,0.5]];portConstraint=eastwest;whiteSpace=wrap;html=1;" parent="d6C7AB8cnqzrk_Mo-MiM-48" vertex="1">
          <mxGeometry y="34" width="282" height="26" as="geometry" />
        </mxCell>
        <mxCell id="d6C7AB8cnqzrk_Mo-MiM-50" value="Save&amp;lt;TSave&amp;gt;(TSave): void" style="text;strokeColor=none;fillColor=none;align=left;verticalAlign=top;spacingLeft=4;spacingRight=4;overflow=hidden;rotatable=0;points=[[0,0.5],[1,0.5]];portConstraint=eastwest;whiteSpace=wrap;html=1;" parent="d6C7AB8cnqzrk_Mo-MiM-48" vertex="1">
          <mxGeometry y="60" width="282" height="26" as="geometry" />
        </mxCell>
        <mxCell id="d6C7AB8cnqzrk_Mo-MiM-52" value="BinaryDataHandler" style="swimlane;fontStyle=1;align=center;verticalAlign=top;childLayout=stackLayout;horizontal=1;startSize=26;horizontalStack=0;resizeParent=1;resizeParentMax=0;resizeLast=0;collapsible=1;marginBottom=0;whiteSpace=wrap;html=1;" parent="d6C7AB8cnqzrk_Mo-MiM-2" vertex="1">
          <mxGeometry x="657" y="225" width="282" height="86" as="geometry" />
        </mxCell>
        <mxCell id="d6C7AB8cnqzrk_Mo-MiM-53" value="" style="line;strokeWidth=1;fillColor=none;align=left;verticalAlign=middle;spacingTop=-1;spacingLeft=3;spacingRight=3;rotatable=0;labelPosition=right;points=[];portConstraint=eastwest;strokeColor=inherit;" parent="d6C7AB8cnqzrk_Mo-MiM-52" vertex="1">
          <mxGeometry y="26" width="282" height="8" as="geometry" />
        </mxCell>
        <mxCell id="d6C7AB8cnqzrk_Mo-MiM-54" value="Load&amp;lt;TLoad&amp;gt;(TSave): TLoad" style="text;strokeColor=none;fillColor=none;align=left;verticalAlign=top;spacingLeft=4;spacingRight=4;overflow=hidden;rotatable=0;points=[[0,0.5],[1,0.5]];portConstraint=eastwest;whiteSpace=wrap;html=1;" parent="d6C7AB8cnqzrk_Mo-MiM-52" vertex="1">
          <mxGeometry y="34" width="282" height="26" as="geometry" />
        </mxCell>
        <mxCell id="d6C7AB8cnqzrk_Mo-MiM-55" value="Save&amp;lt;TSave&amp;gt;(TSave): void" style="text;strokeColor=none;fillColor=none;align=left;verticalAlign=top;spacingLeft=4;spacingRight=4;overflow=hidden;rotatable=0;points=[[0,0.5],[1,0.5]];portConstraint=eastwest;whiteSpace=wrap;html=1;" parent="d6C7AB8cnqzrk_Mo-MiM-52" vertex="1">
          <mxGeometry y="60" width="282" height="26" as="geometry" />
        </mxCell>
        <mxCell id="d6C7AB8cnqzrk_Mo-MiM-56" value="TestProvider" style="swimlane;fontStyle=1;align=center;verticalAlign=top;childLayout=stackLayout;horizontal=1;startSize=26;horizontalStack=0;resizeParent=1;resizeParentMax=0;resizeLast=0;collapsible=1;marginBottom=0;whiteSpace=wrap;html=1;" parent="d6C7AB8cnqzrk_Mo-MiM-2" vertex="1">
          <mxGeometry x="1184" y="195" width="463" height="112" as="geometry" />
        </mxCell>
        <mxCell id="tLaI_0GgtARf6P8ylGyM-122" value="CurrentTest: Test" style="text;strokeColor=none;fillColor=none;align=left;verticalAlign=top;spacingLeft=4;spacingRight=4;overflow=hidden;rotatable=0;points=[[0,0.5],[1,0.5]];portConstraint=eastwest;whiteSpace=wrap;html=1;" parent="d6C7AB8cnqzrk_Mo-MiM-56" vertex="1">
          <mxGeometry y="26" width="463" height="26" as="geometry" />
        </mxCell>
        <mxCell id="d6C7AB8cnqzrk_Mo-MiM-57" value="TestsCollection: List&amp;lt;Test&amp;gt;" style="text;strokeColor=none;fillColor=none;align=left;verticalAlign=top;spacingLeft=4;spacingRight=4;overflow=hidden;rotatable=0;points=[[0,0.5],[1,0.5]];portConstraint=eastwest;whiteSpace=wrap;html=1;" parent="d6C7AB8cnqzrk_Mo-MiM-56" vertex="1">
          <mxGeometry y="52" width="463" height="26" as="geometry" />
        </mxCell>
        <mxCell id="d6C7AB8cnqzrk_Mo-MiM-59" value="" style="line;strokeWidth=1;fillColor=none;align=left;verticalAlign=middle;spacingTop=-1;spacingLeft=3;spacingRight=3;rotatable=0;labelPosition=right;points=[];portConstraint=eastwest;strokeColor=inherit;" parent="d6C7AB8cnqzrk_Mo-MiM-56" vertex="1">
          <mxGeometry y="78" width="463" height="8" as="geometry" />
        </mxCell>
        <mxCell id="d6C7AB8cnqzrk_Mo-MiM-60" value="RandomGenerate(int questionCount): Test" style="text;strokeColor=none;fillColor=none;align=left;verticalAlign=top;spacingLeft=4;spacingRight=4;overflow=hidden;rotatable=0;points=[[0,0.5],[1,0.5]];portConstraint=eastwest;whiteSpace=wrap;html=1;" parent="d6C7AB8cnqzrk_Mo-MiM-56" vertex="1">
          <mxGeometry y="86" width="463" height="26" as="geometry" />
        </mxCell>
        <mxCell id="d6C7AB8cnqzrk_Mo-MiM-62" value="PracticProvider" style="swimlane;fontStyle=1;align=center;verticalAlign=top;childLayout=stackLayout;horizontal=1;startSize=26;horizontalStack=0;resizeParent=1;resizeParentMax=0;resizeLast=0;collapsible=1;marginBottom=0;whiteSpace=wrap;html=1;" parent="d6C7AB8cnqzrk_Mo-MiM-2" vertex="1">
          <mxGeometry x="1176" y="510" width="463" height="86" as="geometry" />
        </mxCell>
        <mxCell id="d6C7AB8cnqzrk_Mo-MiM-63" value="PracticCollection: List&amp;lt;PracticTask&amp;gt;" style="text;strokeColor=none;fillColor=none;align=left;verticalAlign=top;spacingLeft=4;spacingRight=4;overflow=hidden;rotatable=0;points=[[0,0.5],[1,0.5]];portConstraint=eastwest;whiteSpace=wrap;html=1;" parent="d6C7AB8cnqzrk_Mo-MiM-62" vertex="1">
          <mxGeometry y="26" width="463" height="26" as="geometry" />
        </mxCell>
        <mxCell id="tLaI_0GgtARf6P8ylGyM-126" value="CurrentPractic:Practic" style="text;strokeColor=none;fillColor=none;align=left;verticalAlign=top;spacingLeft=4;spacingRight=4;overflow=hidden;rotatable=0;points=[[0,0.5],[1,0.5]];portConstraint=eastwest;whiteSpace=wrap;html=1;" parent="d6C7AB8cnqzrk_Mo-MiM-62" vertex="1">
          <mxGeometry y="52" width="463" height="26" as="geometry" />
        </mxCell>
        <mxCell id="d6C7AB8cnqzrk_Mo-MiM-64" value="" style="line;strokeWidth=1;fillColor=none;align=left;verticalAlign=middle;spacingTop=-1;spacingLeft=3;spacingRight=3;rotatable=0;labelPosition=right;points=[];portConstraint=eastwest;strokeColor=inherit;" parent="d6C7AB8cnqzrk_Mo-MiM-62" vertex="1">
          <mxGeometry y="78" width="463" height="8" as="geometry" />
        </mxCell>
        <mxCell id="d6C7AB8cnqzrk_Mo-MiM-84" value="Qestion" style="swimlane;fontStyle=1;align=center;verticalAlign=top;childLayout=stackLayout;horizontal=1;startSize=26;horizontalStack=0;resizeParent=1;resizeParentMax=0;resizeLast=0;collapsible=1;marginBottom=0;whiteSpace=wrap;html=1;" parent="d6C7AB8cnqzrk_Mo-MiM-2" vertex="1">
          <mxGeometry x="2037" y="197" width="160" height="112" as="geometry" />
        </mxCell>
        <mxCell id="d6C7AB8cnqzrk_Mo-MiM-85" value="Title: string" style="text;strokeColor=none;fillColor=none;align=left;verticalAlign=top;spacingLeft=4;spacingRight=4;overflow=hidden;rotatable=0;points=[[0,0.5],[1,0.5]];portConstraint=eastwest;whiteSpace=wrap;html=1;" parent="d6C7AB8cnqzrk_Mo-MiM-84" vertex="1">
          <mxGeometry y="26" width="160" height="26" as="geometry" />
        </mxCell>
        <mxCell id="d6C7AB8cnqzrk_Mo-MiM-88" value="Text: string" style="text;strokeColor=none;fillColor=none;align=left;verticalAlign=top;spacingLeft=4;spacingRight=4;overflow=hidden;rotatable=0;points=[[0,0.5],[1,0.5]];portConstraint=eastwest;whiteSpace=wrap;html=1;" parent="d6C7AB8cnqzrk_Mo-MiM-84" vertex="1">
          <mxGeometry y="52" width="160" height="26" as="geometry" />
        </mxCell>
        <mxCell id="d6C7AB8cnqzrk_Mo-MiM-89" value="Answers: Answer[]" style="text;strokeColor=none;fillColor=none;align=left;verticalAlign=top;spacingLeft=4;spacingRight=4;overflow=hidden;rotatable=0;points=[[0,0.5],[1,0.5]];portConstraint=eastwest;whiteSpace=wrap;html=1;" parent="d6C7AB8cnqzrk_Mo-MiM-84" vertex="1">
          <mxGeometry y="78" width="160" height="26" as="geometry" />
        </mxCell>
        <mxCell id="d6C7AB8cnqzrk_Mo-MiM-86" value="" style="line;strokeWidth=1;fillColor=none;align=left;verticalAlign=middle;spacingTop=-1;spacingLeft=3;spacingRight=3;rotatable=0;labelPosition=right;points=[];portConstraint=eastwest;strokeColor=inherit;" parent="d6C7AB8cnqzrk_Mo-MiM-84" vertex="1">
          <mxGeometry y="104" width="160" height="8" as="geometry" />
        </mxCell>
        <mxCell id="d6C7AB8cnqzrk_Mo-MiM-90" value="Answer" style="swimlane;fontStyle=1;align=center;verticalAlign=top;childLayout=stackLayout;horizontal=1;startSize=26;horizontalStack=0;resizeParent=1;resizeParentMax=0;resizeLast=0;collapsible=1;marginBottom=0;whiteSpace=wrap;html=1;" parent="d6C7AB8cnqzrk_Mo-MiM-2" vertex="1">
          <mxGeometry x="2300" y="169" width="160" height="86" as="geometry" />
        </mxCell>
        <mxCell id="d6C7AB8cnqzrk_Mo-MiM-92" value="Text: string" style="text;strokeColor=none;fillColor=none;align=left;verticalAlign=top;spacingLeft=4;spacingRight=4;overflow=hidden;rotatable=0;points=[[0,0.5],[1,0.5]];portConstraint=eastwest;whiteSpace=wrap;html=1;" parent="d6C7AB8cnqzrk_Mo-MiM-90" vertex="1">
          <mxGeometry y="26" width="160" height="26" as="geometry" />
        </mxCell>
        <mxCell id="d6C7AB8cnqzrk_Mo-MiM-93" value="Flag: bool" style="text;strokeColor=none;fillColor=none;align=left;verticalAlign=top;spacingLeft=4;spacingRight=4;overflow=hidden;rotatable=0;points=[[0,0.5],[1,0.5]];portConstraint=eastwest;whiteSpace=wrap;html=1;" parent="d6C7AB8cnqzrk_Mo-MiM-90" vertex="1">
          <mxGeometry y="52" width="160" height="26" as="geometry" />
        </mxCell>
        <mxCell id="d6C7AB8cnqzrk_Mo-MiM-94" value="" style="line;strokeWidth=1;fillColor=none;align=left;verticalAlign=middle;spacingTop=-1;spacingLeft=3;spacingRight=3;rotatable=0;labelPosition=right;points=[];portConstraint=eastwest;strokeColor=inherit;" parent="d6C7AB8cnqzrk_Mo-MiM-90" vertex="1">
          <mxGeometry y="78" width="160" height="8" as="geometry" />
        </mxCell>
        <mxCell id="d6C7AB8cnqzrk_Mo-MiM-95" value="b&amp;nbsp;" style="endArrow=open;html=1;endSize=12;startArrow=diamondThin;startSize=14;startFill=1;edgeStyle=orthogonalEdgeStyle;align=left;verticalAlign=bottom;rounded=0;fontSize=12;exitX=1;exitY=0.5;exitDx=0;exitDy=0;entryX=0;entryY=0.25;entryDx=0;entryDy=0;" parent="d6C7AB8cnqzrk_Mo-MiM-2" source="d6C7AB8cnqzrk_Mo-MiM-89" target="d6C7AB8cnqzrk_Mo-MiM-90" edge="1">
          <mxGeometry x="-1" y="3" relative="1" as="geometry">
            <mxPoint x="2323" y="329" as="sourcePoint" />
            <mxPoint x="2415" y="208.5" as="targetPoint" />
          </mxGeometry>
        </mxCell>
        <mxCell id="d6C7AB8cnqzrk_Mo-MiM-112" style="edgeStyle=none;curved=1;rounded=0;orthogonalLoop=1;jettySize=auto;html=1;exitX=0.5;exitY=1;exitDx=0;exitDy=0;entryX=0.5;entryY=0;entryDx=0;entryDy=0;fontSize=12;startSize=8;endSize=8;" parent="d6C7AB8cnqzrk_Mo-MiM-2" source="d6C7AB8cnqzrk_Mo-MiM-96" target="d6C7AB8cnqzrk_Mo-MiM-104" edge="1">
          <mxGeometry relative="1" as="geometry" />
        </mxCell>
        <mxCell id="d6C7AB8cnqzrk_Mo-MiM-96" value="Test" style="swimlane;fontStyle=1;align=center;verticalAlign=top;childLayout=stackLayout;horizontal=1;startSize=26;horizontalStack=0;resizeParent=1;resizeParentMax=0;resizeLast=0;collapsible=1;marginBottom=0;whiteSpace=wrap;html=1;" parent="d6C7AB8cnqzrk_Mo-MiM-2" vertex="1">
          <mxGeometry x="1793" y="184" width="160" height="86" as="geometry" />
        </mxCell>
        <mxCell id="d6C7AB8cnqzrk_Mo-MiM-97" value="Title: string" style="text;strokeColor=none;fillColor=none;align=left;verticalAlign=top;spacingLeft=4;spacingRight=4;overflow=hidden;rotatable=0;points=[[0,0.5],[1,0.5]];portConstraint=eastwest;whiteSpace=wrap;html=1;" parent="d6C7AB8cnqzrk_Mo-MiM-96" vertex="1">
          <mxGeometry y="26" width="160" height="26" as="geometry" />
        </mxCell>
        <mxCell id="d6C7AB8cnqzrk_Mo-MiM-99" value="Qestions: Qestion[]" style="text;strokeColor=none;fillColor=none;align=left;verticalAlign=top;spacingLeft=4;spacingRight=4;overflow=hidden;rotatable=0;points=[[0,0.5],[1,0.5]];portConstraint=eastwest;whiteSpace=wrap;html=1;" parent="d6C7AB8cnqzrk_Mo-MiM-96" vertex="1">
          <mxGeometry y="52" width="160" height="26" as="geometry" />
        </mxCell>
        <mxCell id="d6C7AB8cnqzrk_Mo-MiM-100" value="" style="line;strokeWidth=1;fillColor=none;align=left;verticalAlign=middle;spacingTop=-1;spacingLeft=3;spacingRight=3;rotatable=0;labelPosition=right;points=[];portConstraint=eastwest;strokeColor=inherit;" parent="d6C7AB8cnqzrk_Mo-MiM-96" vertex="1">
          <mxGeometry y="78" width="160" height="8" as="geometry" />
        </mxCell>
        <mxCell id="d6C7AB8cnqzrk_Mo-MiM-102" value="n" style="endArrow=open;html=1;endSize=12;startArrow=diamondThin;startSize=14;startFill=1;edgeStyle=orthogonalEdgeStyle;align=left;verticalAlign=bottom;rounded=0;fontSize=12;exitX=1;exitY=0.5;exitDx=0;exitDy=0;entryX=-0.006;entryY=-0.041;entryDx=0;entryDy=0;entryPerimeter=0;" parent="d6C7AB8cnqzrk_Mo-MiM-2" source="d6C7AB8cnqzrk_Mo-MiM-99" target="d6C7AB8cnqzrk_Mo-MiM-85" edge="1">
          <mxGeometry x="-1" y="3" relative="1" as="geometry">
            <mxPoint x="2030" y="383" as="sourcePoint" />
            <mxPoint x="2203" y="362" as="targetPoint" />
          </mxGeometry>
        </mxCell>
        <mxCell id="d6C7AB8cnqzrk_Mo-MiM-103" value="n" style="endArrow=open;html=1;endSize=12;startArrow=diamondThin;startSize=14;startFill=0;align=left;verticalAlign=bottom;rounded=0;fontSize=12;exitX=1;exitY=0.5;exitDx=0;exitDy=0;entryX=0;entryY=0.25;entryDx=0;entryDy=0;edgeStyle=orthogonalEdgeStyle;" parent="d6C7AB8cnqzrk_Mo-MiM-2" source="d6C7AB8cnqzrk_Mo-MiM-60" target="d6C7AB8cnqzrk_Mo-MiM-96" edge="1">
          <mxGeometry x="-1" y="3" relative="1" as="geometry">
            <mxPoint x="1817" y="107" as="sourcePoint" />
            <mxPoint x="1977" y="107" as="targetPoint" />
          </mxGeometry>
        </mxCell>
        <mxCell id="d6C7AB8cnqzrk_Mo-MiM-104" value="EducationalMaterial" style="swimlane;fontStyle=1;align=center;verticalAlign=top;childLayout=stackLayout;horizontal=1;startSize=26;horizontalStack=0;resizeParent=1;resizeParentMax=0;resizeLast=0;collapsible=1;marginBottom=0;whiteSpace=wrap;html=1;" parent="d6C7AB8cnqzrk_Mo-MiM-2" vertex="1">
          <mxGeometry x="1793" y="342" width="160" height="86" as="geometry" />
        </mxCell>
        <mxCell id="d6C7AB8cnqzrk_Mo-MiM-105" value="Title: string" style="text;strokeColor=none;fillColor=none;align=left;verticalAlign=top;spacingLeft=4;spacingRight=4;overflow=hidden;rotatable=0;points=[[0,0.5],[1,0.5]];portConstraint=eastwest;whiteSpace=wrap;html=1;" parent="d6C7AB8cnqzrk_Mo-MiM-104" vertex="1">
          <mxGeometry y="26" width="160" height="26" as="geometry" />
        </mxCell>
        <mxCell id="d6C7AB8cnqzrk_Mo-MiM-106" value="Qestions: Qestion[]" style="text;strokeColor=none;fillColor=none;align=left;verticalAlign=top;spacingLeft=4;spacingRight=4;overflow=hidden;rotatable=0;points=[[0,0.5],[1,0.5]];portConstraint=eastwest;whiteSpace=wrap;html=1;" parent="d6C7AB8cnqzrk_Mo-MiM-104" vertex="1">
          <mxGeometry y="52" width="160" height="26" as="geometry" />
        </mxCell>
        <mxCell id="d6C7AB8cnqzrk_Mo-MiM-107" value="" style="line;strokeWidth=1;fillColor=none;align=left;verticalAlign=middle;spacingTop=-1;spacingLeft=3;spacingRight=3;rotatable=0;labelPosition=right;points=[];portConstraint=eastwest;strokeColor=inherit;" parent="d6C7AB8cnqzrk_Mo-MiM-104" vertex="1">
          <mxGeometry y="78" width="160" height="8" as="geometry" />
        </mxCell>
        <mxCell id="d6C7AB8cnqzrk_Mo-MiM-117" style="edgeStyle=orthogonalEdgeStyle;rounded=0;orthogonalLoop=1;jettySize=auto;html=1;exitX=0.5;exitY=0;exitDx=0;exitDy=0;entryX=0.5;entryY=1;entryDx=0;entryDy=0;fontSize=12;startSize=8;endSize=8;" parent="d6C7AB8cnqzrk_Mo-MiM-2" source="d6C7AB8cnqzrk_Mo-MiM-113" target="d6C7AB8cnqzrk_Mo-MiM-104" edge="1">
          <mxGeometry relative="1" as="geometry" />
        </mxCell>
        <mxCell id="d6C7AB8cnqzrk_Mo-MiM-113" value="PracticTask" style="swimlane;fontStyle=1;align=center;verticalAlign=top;childLayout=stackLayout;horizontal=1;startSize=26;horizontalStack=0;resizeParent=1;resizeParentMax=0;resizeLast=0;collapsible=1;marginBottom=0;whiteSpace=wrap;html=1;" parent="d6C7AB8cnqzrk_Mo-MiM-2" vertex="1">
          <mxGeometry x="1890" y="513" width="343.5" height="346" as="geometry" />
        </mxCell>
        <mxCell id="d6C7AB8cnqzrk_Mo-MiM-114" value="Title: string" style="text;strokeColor=none;fillColor=none;align=left;verticalAlign=top;spacingLeft=4;spacingRight=4;overflow=hidden;rotatable=0;points=[[0,0.5],[1,0.5]];portConstraint=eastwest;whiteSpace=wrap;html=1;" parent="d6C7AB8cnqzrk_Mo-MiM-113" vertex="1">
          <mxGeometry y="26" width="343.5" height="26" as="geometry" />
        </mxCell>
        <mxCell id="d6C7AB8cnqzrk_Mo-MiM-115" value="Text: string" style="text;strokeColor=none;fillColor=none;align=left;verticalAlign=top;spacingLeft=4;spacingRight=4;overflow=hidden;rotatable=0;points=[[0,0.5],[1,0.5]];portConstraint=eastwest;whiteSpace=wrap;html=1;" parent="d6C7AB8cnqzrk_Mo-MiM-113" vertex="1">
          <mxGeometry y="52" width="343.5" height="26" as="geometry" />
        </mxCell>
        <mxCell id="tLaI_0GgtARf6P8ylGyM-3" value="Vertices: List&amp;lt;VisualVertex&amp;gt;" style="text;strokeColor=none;fillColor=none;align=left;verticalAlign=top;spacingLeft=4;spacingRight=4;overflow=hidden;rotatable=0;points=[[0,0.5],[1,0.5]];portConstraint=eastwest;whiteSpace=wrap;html=1;" parent="d6C7AB8cnqzrk_Mo-MiM-113" vertex="1">
          <mxGeometry y="78" width="343.5" height="26" as="geometry" />
        </mxCell>
        <mxCell id="tLaI_0GgtARf6P8ylGyM-5" value="Connections: List&amp;lt;VisualConnection&amp;gt;" style="text;strokeColor=none;fillColor=none;align=left;verticalAlign=top;spacingLeft=4;spacingRight=4;overflow=hidden;rotatable=0;points=[[0,0.5],[1,0.5]];portConstraint=eastwest;whiteSpace=wrap;html=1;" parent="d6C7AB8cnqzrk_Mo-MiM-113" vertex="1">
          <mxGeometry y="104" width="343.5" height="26" as="geometry" />
        </mxCell>
        <mxCell id="tLaI_0GgtARf6P8ylGyM-4" value="NeedCheckVertexCount: bool" style="text;strokeColor=none;fillColor=none;align=left;verticalAlign=top;spacingLeft=4;spacingRight=4;overflow=hidden;rotatable=0;points=[[0,0.5],[1,0.5]];portConstraint=eastwest;whiteSpace=wrap;html=1;" parent="d6C7AB8cnqzrk_Mo-MiM-113" vertex="1">
          <mxGeometry y="130" width="343.5" height="26" as="geometry" />
        </mxCell>
        <mxCell id="tLaI_0GgtARf6P8ylGyM-7" value="NeedCheckVertexPosition: bool" style="text;strokeColor=none;fillColor=none;align=left;verticalAlign=top;spacingLeft=4;spacingRight=4;overflow=hidden;rotatable=0;points=[[0,0.5],[1,0.5]];portConstraint=eastwest;whiteSpace=wrap;html=1;" parent="d6C7AB8cnqzrk_Mo-MiM-113" vertex="1">
          <mxGeometry y="156" width="343.5" height="26" as="geometry" />
        </mxCell>
        <mxCell id="tLaI_0GgtARf6P8ylGyM-8" value="NeedCheckVertexSize: bool" style="text;strokeColor=none;fillColor=none;align=left;verticalAlign=top;spacingLeft=4;spacingRight=4;overflow=hidden;rotatable=0;points=[[0,0.5],[1,0.5]];portConstraint=eastwest;whiteSpace=wrap;html=1;" parent="d6C7AB8cnqzrk_Mo-MiM-113" vertex="1">
          <mxGeometry y="182" width="343.5" height="26" as="geometry" />
        </mxCell>
        <mxCell id="tLaI_0GgtARf6P8ylGyM-9" value="NeedCheckVertexName: bool" style="text;strokeColor=none;fillColor=none;align=left;verticalAlign=top;spacingLeft=4;spacingRight=4;overflow=hidden;rotatable=0;points=[[0,0.5],[1,0.5]];portConstraint=eastwest;whiteSpace=wrap;html=1;" parent="d6C7AB8cnqzrk_Mo-MiM-113" vertex="1">
          <mxGeometry y="208" width="343.5" height="26" as="geometry" />
        </mxCell>
        <mxCell id="tLaI_0GgtARf6P8ylGyM-12" value="NeedCheckConnection: bool" style="text;strokeColor=none;fillColor=none;align=left;verticalAlign=top;spacingLeft=4;spacingRight=4;overflow=hidden;rotatable=0;points=[[0,0.5],[1,0.5]];portConstraint=eastwest;whiteSpace=wrap;html=1;" parent="d6C7AB8cnqzrk_Mo-MiM-113" vertex="1">
          <mxGeometry y="234" width="343.5" height="26" as="geometry" />
        </mxCell>
        <mxCell id="tLaI_0GgtARf6P8ylGyM-6" value="NeedCheckConnectionCount: bool" style="text;strokeColor=none;fillColor=none;align=left;verticalAlign=top;spacingLeft=4;spacingRight=4;overflow=hidden;rotatable=0;points=[[0,0.5],[1,0.5]];portConstraint=eastwest;whiteSpace=wrap;html=1;" parent="d6C7AB8cnqzrk_Mo-MiM-113" vertex="1">
          <mxGeometry y="260" width="343.5" height="26" as="geometry" />
        </mxCell>
        <mxCell id="tLaI_0GgtARf6P8ylGyM-10" value="NeedCheckConnectionWeight: bool" style="text;strokeColor=none;fillColor=none;align=left;verticalAlign=top;spacingLeft=4;spacingRight=4;overflow=hidden;rotatable=0;points=[[0,0.5],[1,0.5]];portConstraint=eastwest;whiteSpace=wrap;html=1;" parent="d6C7AB8cnqzrk_Mo-MiM-113" vertex="1">
          <mxGeometry y="286" width="343.5" height="26" as="geometry" />
        </mxCell>
        <mxCell id="tLaI_0GgtARf6P8ylGyM-11" value="NeedCheckConnectionType: bool" style="text;strokeColor=none;fillColor=none;align=left;verticalAlign=top;spacingLeft=4;spacingRight=4;overflow=hidden;rotatable=0;points=[[0,0.5],[1,0.5]];portConstraint=eastwest;whiteSpace=wrap;html=1;" parent="d6C7AB8cnqzrk_Mo-MiM-113" vertex="1">
          <mxGeometry y="312" width="343.5" height="26" as="geometry" />
        </mxCell>
        <mxCell id="d6C7AB8cnqzrk_Mo-MiM-116" value="" style="line;strokeWidth=1;fillColor=none;align=left;verticalAlign=middle;spacingTop=-1;spacingLeft=3;spacingRight=3;rotatable=0;labelPosition=right;points=[];portConstraint=eastwest;strokeColor=inherit;" parent="d6C7AB8cnqzrk_Mo-MiM-113" vertex="1">
          <mxGeometry y="338" width="343.5" height="8" as="geometry" />
        </mxCell>
        <mxCell id="tLaI_0GgtARf6P8ylGyM-17" value="n" style="endArrow=open;html=1;endSize=12;startArrow=diamondThin;startSize=14;startFill=0;edgeStyle=orthogonalEdgeStyle;align=left;verticalAlign=bottom;rounded=0;fontSize=12;exitX=1;exitY=0.5;exitDx=0;exitDy=0;entryX=0.001;entryY=0.053;entryDx=0;entryDy=0;entryPerimeter=0;" parent="d6C7AB8cnqzrk_Mo-MiM-2" source="d6C7AB8cnqzrk_Mo-MiM-63" target="d6C7AB8cnqzrk_Mo-MiM-113" edge="1">
          <mxGeometry x="-1" y="3" relative="1" as="geometry">
            <mxPoint x="1494" y="635" as="sourcePoint" />
            <mxPoint x="1654" y="635" as="targetPoint" />
          </mxGeometry>
        </mxCell>
        <mxCell id="tLaI_0GgtARf6P8ylGyM-20" value="VisualVertex" style="swimlane;fontStyle=1;align=center;verticalAlign=top;childLayout=stackLayout;horizontal=1;startSize=26;horizontalStack=0;resizeParent=1;resizeParentMax=0;resizeLast=0;collapsible=1;marginBottom=0;whiteSpace=wrap;html=1;" parent="d6C7AB8cnqzrk_Mo-MiM-2" vertex="1">
          <mxGeometry x="2404" y="484" width="321" height="372" as="geometry" />
        </mxCell>
        <mxCell id="tLaI_0GgtARf6P8ylGyM-22" value="Vertex: Vertex" style="text;strokeColor=none;fillColor=none;align=left;verticalAlign=top;spacingLeft=4;spacingRight=4;overflow=hidden;rotatable=0;points=[[0,0.5],[1,0.5]];portConstraint=eastwest;whiteSpace=wrap;html=1;" parent="tLaI_0GgtARf6P8ylGyM-20" vertex="1">
          <mxGeometry y="26" width="321" height="26" as="geometry" />
        </mxCell>
        <mxCell id="tLaI_0GgtARf6P8ylGyM-26" value="Width: int" style="text;strokeColor=none;fillColor=none;align=left;verticalAlign=top;spacingLeft=4;spacingRight=4;overflow=hidden;rotatable=0;points=[[0,0.5],[1,0.5]];portConstraint=eastwest;whiteSpace=wrap;html=1;" parent="tLaI_0GgtARf6P8ylGyM-20" vertex="1">
          <mxGeometry y="52" width="321" height="26" as="geometry" />
        </mxCell>
        <mxCell id="tLaI_0GgtARf6P8ylGyM-27" value="Height: int" style="text;strokeColor=none;fillColor=none;align=left;verticalAlign=top;spacingLeft=4;spacingRight=4;overflow=hidden;rotatable=0;points=[[0,0.5],[1,0.5]];portConstraint=eastwest;whiteSpace=wrap;html=1;" parent="tLaI_0GgtARf6P8ylGyM-20" vertex="1">
          <mxGeometry y="78" width="321" height="26" as="geometry" />
        </mxCell>
        <mxCell id="tLaI_0GgtARf6P8ylGyM-24" value="X: int" style="text;strokeColor=none;fillColor=none;align=left;verticalAlign=top;spacingLeft=4;spacingRight=4;overflow=hidden;rotatable=0;points=[[0,0.5],[1,0.5]];portConstraint=eastwest;whiteSpace=wrap;html=1;" parent="tLaI_0GgtARf6P8ylGyM-20" vertex="1">
          <mxGeometry y="104" width="321" height="26" as="geometry" />
        </mxCell>
        <mxCell id="tLaI_0GgtARf6P8ylGyM-23" value="Y: int" style="text;strokeColor=none;fillColor=none;align=left;verticalAlign=top;spacingLeft=4;spacingRight=4;overflow=hidden;rotatable=0;points=[[0,0.5],[1,0.5]];portConstraint=eastwest;whiteSpace=wrap;html=1;" parent="tLaI_0GgtARf6P8ylGyM-20" vertex="1">
          <mxGeometry y="130" width="321" height="26" as="geometry" />
        </mxCell>
        <mxCell id="tLaI_0GgtARf6P8ylGyM-25" value="Coordinates: (int, int )" style="text;strokeColor=none;fillColor=none;align=left;verticalAlign=top;spacingLeft=4;spacingRight=4;overflow=hidden;rotatable=0;points=[[0,0.5],[1,0.5]];portConstraint=eastwest;whiteSpace=wrap;html=1;" parent="tLaI_0GgtARf6P8ylGyM-20" vertex="1">
          <mxGeometry y="156" width="321" height="26" as="geometry" />
        </mxCell>
        <mxCell id="tLaI_0GgtARf6P8ylGyM-28" value="Name: String" style="text;strokeColor=none;fillColor=none;align=left;verticalAlign=top;spacingLeft=4;spacingRight=4;overflow=hidden;rotatable=0;points=[[0,0.5],[1,0.5]];portConstraint=eastwest;whiteSpace=wrap;html=1;" parent="tLaI_0GgtARf6P8ylGyM-20" vertex="1">
          <mxGeometry y="182" width="321" height="26" as="geometry" />
        </mxCell>
        <mxCell id="tLaI_0GgtARf6P8ylGyM-29" value="Number: int" style="text;strokeColor=none;fillColor=none;align=left;verticalAlign=top;spacingLeft=4;spacingRight=4;overflow=hidden;rotatable=0;points=[[0,0.5],[1,0.5]];portConstraint=eastwest;whiteSpace=wrap;html=1;" parent="tLaI_0GgtARf6P8ylGyM-20" vertex="1">
          <mxGeometry y="208" width="321" height="26" as="geometry" />
        </mxCell>
        <mxCell id="tLaI_0GgtARf6P8ylGyM-30" value="Color: Brush" style="text;strokeColor=none;fillColor=none;align=left;verticalAlign=top;spacingLeft=4;spacingRight=4;overflow=hidden;rotatable=0;points=[[0,0.5],[1,0.5]];portConstraint=eastwest;whiteSpace=wrap;html=1;" parent="tLaI_0GgtARf6P8ylGyM-20" vertex="1">
          <mxGeometry y="234" width="321" height="26" as="geometry" />
        </mxCell>
        <mxCell id="tLaI_0GgtARf6P8ylGyM-31" value="OnDelete: Action" style="text;strokeColor=none;fillColor=none;align=left;verticalAlign=top;spacingLeft=4;spacingRight=4;overflow=hidden;rotatable=0;points=[[0,0.5],[1,0.5]];portConstraint=eastwest;whiteSpace=wrap;html=1;" parent="tLaI_0GgtARf6P8ylGyM-20" vertex="1">
          <mxGeometry y="260" width="321" height="26" as="geometry" />
        </mxCell>
        <mxCell id="tLaI_0GgtARf6P8ylGyM-32" value="PropertyChanged: PropertyChangedEventHandler" style="text;strokeColor=none;fillColor=none;align=left;verticalAlign=top;spacingLeft=4;spacingRight=4;overflow=hidden;rotatable=0;points=[[0,0.5],[1,0.5]];portConstraint=eastwest;whiteSpace=wrap;html=1;" parent="tLaI_0GgtARf6P8ylGyM-20" vertex="1">
          <mxGeometry y="286" width="321" height="26" as="geometry" />
        </mxCell>
        <mxCell id="tLaI_0GgtARf6P8ylGyM-21" value="" style="line;strokeWidth=1;fillColor=none;align=left;verticalAlign=middle;spacingTop=-1;spacingLeft=3;spacingRight=3;rotatable=0;labelPosition=right;points=[];portConstraint=eastwest;strokeColor=inherit;" parent="tLaI_0GgtARf6P8ylGyM-20" vertex="1">
          <mxGeometry y="312" width="321" height="8" as="geometry" />
        </mxCell>
        <mxCell id="tLaI_0GgtARf6P8ylGyM-33" value="OnPropertyChanged: void" style="text;strokeColor=none;fillColor=none;align=left;verticalAlign=top;spacingLeft=4;spacingRight=4;overflow=hidden;rotatable=0;points=[[0,0.5],[1,0.5]];portConstraint=eastwest;whiteSpace=wrap;html=1;" parent="tLaI_0GgtARf6P8ylGyM-20" vertex="1">
          <mxGeometry y="320" width="321" height="26" as="geometry" />
        </mxCell>
        <mxCell id="tLaI_0GgtARf6P8ylGyM-34" value="Delete: void" style="text;strokeColor=none;fillColor=none;align=left;verticalAlign=top;spacingLeft=4;spacingRight=4;overflow=hidden;rotatable=0;points=[[0,0.5],[1,0.5]];portConstraint=eastwest;whiteSpace=wrap;html=1;" parent="tLaI_0GgtARf6P8ylGyM-20" vertex="1">
          <mxGeometry y="346" width="321" height="26" as="geometry" />
        </mxCell>
        <mxCell id="tLaI_0GgtARf6P8ylGyM-35" value="Vertex" style="swimlane;fontStyle=1;align=center;verticalAlign=top;childLayout=stackLayout;horizontal=1;startSize=26;horizontalStack=0;resizeParent=1;resizeParentMax=0;resizeLast=0;collapsible=1;marginBottom=0;whiteSpace=wrap;html=1;" parent="d6C7AB8cnqzrk_Mo-MiM-2" vertex="1">
          <mxGeometry x="2847" y="484" width="321" height="164" as="geometry" />
        </mxCell>
        <mxCell id="tLaI_0GgtARf6P8ylGyM-39" value="X: int" style="text;strokeColor=none;fillColor=none;align=left;verticalAlign=top;spacingLeft=4;spacingRight=4;overflow=hidden;rotatable=0;points=[[0,0.5],[1,0.5]];portConstraint=eastwest;whiteSpace=wrap;html=1;" parent="tLaI_0GgtARf6P8ylGyM-35" vertex="1">
          <mxGeometry y="26" width="321" height="26" as="geometry" />
        </mxCell>
        <mxCell id="tLaI_0GgtARf6P8ylGyM-40" value="Y: int" style="text;strokeColor=none;fillColor=none;align=left;verticalAlign=top;spacingLeft=4;spacingRight=4;overflow=hidden;rotatable=0;points=[[0,0.5],[1,0.5]];portConstraint=eastwest;whiteSpace=wrap;html=1;" parent="tLaI_0GgtARf6P8ylGyM-35" vertex="1">
          <mxGeometry y="52" width="321" height="26" as="geometry" />
        </mxCell>
        <mxCell id="tLaI_0GgtARf6P8ylGyM-41" value="Coordinates: (int, int )" style="text;strokeColor=none;fillColor=none;align=left;verticalAlign=top;spacingLeft=4;spacingRight=4;overflow=hidden;rotatable=0;points=[[0,0.5],[1,0.5]];portConstraint=eastwest;whiteSpace=wrap;html=1;" parent="tLaI_0GgtARf6P8ylGyM-35" vertex="1">
          <mxGeometry y="78" width="321" height="26" as="geometry" />
        </mxCell>
        <mxCell id="tLaI_0GgtARf6P8ylGyM-42" value="Name: String" style="text;strokeColor=none;fillColor=none;align=left;verticalAlign=top;spacingLeft=4;spacingRight=4;overflow=hidden;rotatable=0;points=[[0,0.5],[1,0.5]];portConstraint=eastwest;whiteSpace=wrap;html=1;" parent="tLaI_0GgtARf6P8ylGyM-35" vertex="1">
          <mxGeometry y="104" width="321" height="26" as="geometry" />
        </mxCell>
        <mxCell id="tLaI_0GgtARf6P8ylGyM-43" value="Number: int" style="text;strokeColor=none;fillColor=none;align=left;verticalAlign=top;spacingLeft=4;spacingRight=4;overflow=hidden;rotatable=0;points=[[0,0.5],[1,0.5]];portConstraint=eastwest;whiteSpace=wrap;html=1;" parent="tLaI_0GgtARf6P8ylGyM-35" vertex="1">
          <mxGeometry y="130" width="321" height="26" as="geometry" />
        </mxCell>
        <mxCell id="tLaI_0GgtARf6P8ylGyM-47" value="" style="line;strokeWidth=1;fillColor=none;align=left;verticalAlign=middle;spacingTop=-1;spacingLeft=3;spacingRight=3;rotatable=0;labelPosition=right;points=[];portConstraint=eastwest;strokeColor=inherit;" parent="tLaI_0GgtARf6P8ylGyM-35" vertex="1">
          <mxGeometry y="156" width="321" height="8" as="geometry" />
        </mxCell>
        <mxCell id="tLaI_0GgtARf6P8ylGyM-50" value="1" style="endArrow=open;html=1;endSize=12;startArrow=diamondThin;startSize=14;startFill=1;edgeStyle=orthogonalEdgeStyle;align=left;verticalAlign=bottom;rounded=0;fontSize=12;exitX=0.999;exitY=0.011;exitDx=0;exitDy=0;exitPerimeter=0;entryX=0.001;entryY=0.1;entryDx=0;entryDy=0;entryPerimeter=0;" parent="d6C7AB8cnqzrk_Mo-MiM-2" source="tLaI_0GgtARf6P8ylGyM-20" target="tLaI_0GgtARf6P8ylGyM-35" edge="1">
          <mxGeometry x="-1" y="3" relative="1" as="geometry">
            <mxPoint x="2433" y="345" as="sourcePoint" />
            <mxPoint x="2593" y="345" as="targetPoint" />
          </mxGeometry>
        </mxCell>
        <mxCell id="tLaI_0GgtARf6P8ylGyM-51" value="n" style="endArrow=open;html=1;endSize=12;startArrow=diamondThin;startSize=14;startFill=1;edgeStyle=orthogonalEdgeStyle;align=left;verticalAlign=bottom;rounded=0;fontSize=12;exitX=1;exitY=0.5;exitDx=0;exitDy=0;entryX=0.007;entryY=0.043;entryDx=0;entryDy=0;entryPerimeter=0;" parent="d6C7AB8cnqzrk_Mo-MiM-2" source="tLaI_0GgtARf6P8ylGyM-3" target="tLaI_0GgtARf6P8ylGyM-20" edge="1">
          <mxGeometry x="-1" y="3" relative="1" as="geometry">
            <mxPoint x="2157" y="427" as="sourcePoint" />
            <mxPoint x="2317" y="427" as="targetPoint" />
          </mxGeometry>
        </mxCell>
        <mxCell id="tLaI_0GgtARf6P8ylGyM-69" value="Connection" style="swimlane;fontStyle=1;align=center;verticalAlign=top;childLayout=stackLayout;horizontal=1;startSize=26;horizontalStack=0;resizeParent=1;resizeParentMax=0;resizeLast=0;collapsible=1;marginBottom=0;whiteSpace=wrap;html=1;" parent="d6C7AB8cnqzrk_Mo-MiM-2" vertex="1">
          <mxGeometry x="2841" y="918" width="321" height="138" as="geometry" />
        </mxCell>
        <mxCell id="tLaI_0GgtARf6P8ylGyM-70" value="Connection: Connection" style="text;strokeColor=none;fillColor=none;align=left;verticalAlign=top;spacingLeft=4;spacingRight=4;overflow=hidden;rotatable=0;points=[[0,0.5],[1,0.5]];portConstraint=eastwest;whiteSpace=wrap;html=1;" parent="tLaI_0GgtARf6P8ylGyM-69" vertex="1">
          <mxGeometry y="26" width="321" height="26" as="geometry" />
        </mxCell>
        <mxCell id="tLaI_0GgtARf6P8ylGyM-71" value="Weight: double" style="text;strokeColor=none;fillColor=none;align=left;verticalAlign=top;spacingLeft=4;spacingRight=4;overflow=hidden;rotatable=0;points=[[0,0.5],[1,0.5]];portConstraint=eastwest;whiteSpace=wrap;html=1;" parent="tLaI_0GgtARf6P8ylGyM-69" vertex="1">
          <mxGeometry y="52" width="321" height="26" as="geometry" />
        </mxCell>
        <mxCell id="tLaI_0GgtARf6P8ylGyM-72" value="ConnectedVertices: (Vertex, Vertex)" style="text;strokeColor=none;fillColor=none;align=left;verticalAlign=top;spacingLeft=4;spacingRight=4;overflow=hidden;rotatable=0;points=[[0,0.5],[1,0.5]];portConstraint=eastwest;whiteSpace=wrap;html=1;" parent="tLaI_0GgtARf6P8ylGyM-69" vertex="1">
          <mxGeometry y="78" width="321" height="26" as="geometry" />
        </mxCell>
        <mxCell id="tLaI_0GgtARf6P8ylGyM-74" value="ConnectionType: ConnectionType" style="text;strokeColor=none;fillColor=none;align=left;verticalAlign=top;spacingLeft=4;spacingRight=4;overflow=hidden;rotatable=0;points=[[0,0.5],[1,0.5]];portConstraint=eastwest;whiteSpace=wrap;html=1;" parent="tLaI_0GgtARf6P8ylGyM-69" vertex="1">
          <mxGeometry y="104" width="321" height="26" as="geometry" />
        </mxCell>
        <mxCell id="tLaI_0GgtARf6P8ylGyM-80" value="" style="line;strokeWidth=1;fillColor=none;align=left;verticalAlign=middle;spacingTop=-1;spacingLeft=3;spacingRight=3;rotatable=0;labelPosition=right;points=[];portConstraint=eastwest;strokeColor=inherit;" parent="tLaI_0GgtARf6P8ylGyM-69" vertex="1">
          <mxGeometry y="130" width="321" height="8" as="geometry" />
        </mxCell>
        <mxCell id="tLaI_0GgtARf6P8ylGyM-52" value="VisualConnection&amp;nbsp;" style="swimlane;fontStyle=1;align=center;verticalAlign=top;childLayout=stackLayout;horizontal=1;startSize=26;horizontalStack=0;resizeParent=1;resizeParentMax=0;resizeLast=0;collapsible=1;marginBottom=0;whiteSpace=wrap;html=1;" parent="d6C7AB8cnqzrk_Mo-MiM-2" vertex="1">
          <mxGeometry x="2404" y="897" width="321" height="320" as="geometry" />
        </mxCell>
        <mxCell id="tLaI_0GgtARf6P8ylGyM-53" value="Connection: Connection" style="text;strokeColor=none;fillColor=none;align=left;verticalAlign=top;spacingLeft=4;spacingRight=4;overflow=hidden;rotatable=0;points=[[0,0.5],[1,0.5]];portConstraint=eastwest;whiteSpace=wrap;html=1;" parent="tLaI_0GgtARf6P8ylGyM-52" vertex="1">
          <mxGeometry y="26" width="321" height="26" as="geometry" />
        </mxCell>
        <mxCell id="tLaI_0GgtARf6P8ylGyM-54" value="Weight: double" style="text;strokeColor=none;fillColor=none;align=left;verticalAlign=top;spacingLeft=4;spacingRight=4;overflow=hidden;rotatable=0;points=[[0,0.5],[1,0.5]];portConstraint=eastwest;whiteSpace=wrap;html=1;" parent="tLaI_0GgtARf6P8ylGyM-52" vertex="1">
          <mxGeometry y="52" width="321" height="26" as="geometry" />
        </mxCell>
        <mxCell id="tLaI_0GgtARf6P8ylGyM-55" value="ConnectedVertices: (VisualVertex, VisualVertex)" style="text;strokeColor=none;fillColor=none;align=left;verticalAlign=top;spacingLeft=4;spacingRight=4;overflow=hidden;rotatable=0;points=[[0,0.5],[1,0.5]];portConstraint=eastwest;whiteSpace=wrap;html=1;" parent="tLaI_0GgtARf6P8ylGyM-52" vertex="1">
          <mxGeometry y="78" width="321" height="26" as="geometry" />
        </mxCell>
        <mxCell id="tLaI_0GgtARf6P8ylGyM-62" value="OnDelete: Action" style="text;strokeColor=none;fillColor=none;align=left;verticalAlign=top;spacingLeft=4;spacingRight=4;overflow=hidden;rotatable=0;points=[[0,0.5],[1,0.5]];portConstraint=eastwest;whiteSpace=wrap;html=1;" parent="tLaI_0GgtARf6P8ylGyM-52" vertex="1">
          <mxGeometry y="104" width="321" height="26" as="geometry" />
        </mxCell>
        <mxCell id="tLaI_0GgtARf6P8ylGyM-58" value="ConnectionType: ConnectionType" style="text;strokeColor=none;fillColor=none;align=left;verticalAlign=top;spacingLeft=4;spacingRight=4;overflow=hidden;rotatable=0;points=[[0,0.5],[1,0.5]];portConstraint=eastwest;whiteSpace=wrap;html=1;" parent="tLaI_0GgtARf6P8ylGyM-52" vertex="1">
          <mxGeometry y="130" width="321" height="26" as="geometry" />
        </mxCell>
        <mxCell id="tLaI_0GgtARf6P8ylGyM-56" value="X1: int" style="text;strokeColor=none;fillColor=none;align=left;verticalAlign=top;spacingLeft=4;spacingRight=4;overflow=hidden;rotatable=0;points=[[0,0.5],[1,0.5]];portConstraint=eastwest;whiteSpace=wrap;html=1;" parent="tLaI_0GgtARf6P8ylGyM-52" vertex="1">
          <mxGeometry y="156" width="321" height="26" as="geometry" />
        </mxCell>
        <mxCell id="tLaI_0GgtARf6P8ylGyM-57" value="Y1: int" style="text;strokeColor=none;fillColor=none;align=left;verticalAlign=top;spacingLeft=4;spacingRight=4;overflow=hidden;rotatable=0;points=[[0,0.5],[1,0.5]];portConstraint=eastwest;whiteSpace=wrap;html=1;" parent="tLaI_0GgtARf6P8ylGyM-52" vertex="1">
          <mxGeometry y="182" width="321" height="26" as="geometry" />
        </mxCell>
        <mxCell id="tLaI_0GgtARf6P8ylGyM-67" value="X2: int" style="text;strokeColor=none;fillColor=none;align=left;verticalAlign=top;spacingLeft=4;spacingRight=4;overflow=hidden;rotatable=0;points=[[0,0.5],[1,0.5]];portConstraint=eastwest;whiteSpace=wrap;html=1;" parent="tLaI_0GgtARf6P8ylGyM-52" vertex="1">
          <mxGeometry y="208" width="321" height="26" as="geometry" />
        </mxCell>
        <mxCell id="tLaI_0GgtARf6P8ylGyM-68" value="Y2: int" style="text;strokeColor=none;fillColor=none;align=left;verticalAlign=top;spacingLeft=4;spacingRight=4;overflow=hidden;rotatable=0;points=[[0,0.5],[1,0.5]];portConstraint=eastwest;whiteSpace=wrap;html=1;" parent="tLaI_0GgtARf6P8ylGyM-52" vertex="1">
          <mxGeometry y="234" width="321" height="26" as="geometry" />
        </mxCell>
        <mxCell id="tLaI_0GgtARf6P8ylGyM-63" value="PropertyChanged: PropertyChangedEventHandler" style="text;strokeColor=none;fillColor=none;align=left;verticalAlign=top;spacingLeft=4;spacingRight=4;overflow=hidden;rotatable=0;points=[[0,0.5],[1,0.5]];portConstraint=eastwest;whiteSpace=wrap;html=1;" parent="tLaI_0GgtARf6P8ylGyM-52" vertex="1">
          <mxGeometry y="260" width="321" height="26" as="geometry" />
        </mxCell>
        <mxCell id="tLaI_0GgtARf6P8ylGyM-64" value="" style="line;strokeWidth=1;fillColor=none;align=left;verticalAlign=middle;spacingTop=-1;spacingLeft=3;spacingRight=3;rotatable=0;labelPosition=right;points=[];portConstraint=eastwest;strokeColor=inherit;" parent="tLaI_0GgtARf6P8ylGyM-52" vertex="1">
          <mxGeometry y="286" width="321" height="8" as="geometry" />
        </mxCell>
        <mxCell id="tLaI_0GgtARf6P8ylGyM-66" value="Delete: void" style="text;strokeColor=none;fillColor=none;align=left;verticalAlign=top;spacingLeft=4;spacingRight=4;overflow=hidden;rotatable=0;points=[[0,0.5],[1,0.5]];portConstraint=eastwest;whiteSpace=wrap;html=1;" parent="tLaI_0GgtARf6P8ylGyM-52" vertex="1">
          <mxGeometry y="294" width="321" height="26" as="geometry" />
        </mxCell>
        <mxCell id="tLaI_0GgtARf6P8ylGyM-82" value="1" style="endArrow=open;html=1;endSize=12;startArrow=diamondThin;startSize=14;startFill=1;edgeStyle=orthogonalEdgeStyle;align=left;verticalAlign=bottom;rounded=0;fontSize=12;exitX=1;exitY=0.5;exitDx=0;exitDy=0;entryX=0.001;entryY=0.082;entryDx=0;entryDy=0;entryPerimeter=0;" parent="d6C7AB8cnqzrk_Mo-MiM-2" source="tLaI_0GgtARf6P8ylGyM-53" target="tLaI_0GgtARf6P8ylGyM-69" edge="1">
          <mxGeometry x="-1" y="3" relative="1" as="geometry">
            <mxPoint x="2636" y="819" as="sourcePoint" />
            <mxPoint x="2796" y="819" as="targetPoint" />
          </mxGeometry>
        </mxCell>
        <mxCell id="tLaI_0GgtARf6P8ylGyM-83" value="n" style="endArrow=open;html=1;endSize=12;startArrow=diamondThin;startSize=14;startFill=1;edgeStyle=orthogonalEdgeStyle;align=left;verticalAlign=bottom;rounded=0;fontSize=12;entryX=0.002;entryY=0.053;entryDx=0;entryDy=0;entryPerimeter=0;exitX=1;exitY=0.5;exitDx=0;exitDy=0;" parent="d6C7AB8cnqzrk_Mo-MiM-2" source="tLaI_0GgtARf6P8ylGyM-5" target="tLaI_0GgtARf6P8ylGyM-52" edge="1">
          <mxGeometry x="-1" y="3" relative="1" as="geometry">
            <mxPoint x="1867" y="946" as="sourcePoint" />
            <mxPoint x="2027" y="946" as="targetPoint" />
          </mxGeometry>
        </mxCell>
        <mxCell id="tLaI_0GgtARf6P8ylGyM-84" value="2" style="endArrow=open;html=1;endSize=12;startArrow=diamondThin;startSize=14;startFill=0;edgeStyle=orthogonalEdgeStyle;align=left;verticalAlign=bottom;rounded=0;fontSize=12;exitX=1;exitY=0.5;exitDx=0;exitDy=0;entryX=1.001;entryY=0.046;entryDx=0;entryDy=0;entryPerimeter=0;" parent="d6C7AB8cnqzrk_Mo-MiM-2" source="tLaI_0GgtARf6P8ylGyM-55" target="tLaI_0GgtARf6P8ylGyM-20" edge="1">
          <mxGeometry x="-1" y="3" relative="1" as="geometry">
            <mxPoint x="2806" y="766" as="sourcePoint" />
            <mxPoint x="2966" y="766" as="targetPoint" />
            <Array as="points">
              <mxPoint x="2763" y="988" />
              <mxPoint x="2763" y="501" />
            </Array>
          </mxGeometry>
        </mxCell>
        <mxCell id="tLaI_0GgtARf6P8ylGyM-86" value="RootViewModel" style="swimlane;fontStyle=1;align=center;verticalAlign=top;childLayout=stackLayout;horizontal=1;startSize=26;horizontalStack=0;resizeParent=1;resizeParentMax=0;resizeLast=0;collapsible=1;marginBottom=0;whiteSpace=wrap;html=1;" parent="d6C7AB8cnqzrk_Mo-MiM-2" vertex="1">
          <mxGeometry x="959" y="814" width="282" height="34" as="geometry" />
        </mxCell>
        <mxCell id="tLaI_0GgtARf6P8ylGyM-89" value="" style="line;strokeWidth=1;fillColor=none;align=left;verticalAlign=middle;spacingTop=-1;spacingLeft=3;spacingRight=3;rotatable=0;labelPosition=right;points=[];portConstraint=eastwest;strokeColor=inherit;" parent="tLaI_0GgtARf6P8ylGyM-86" vertex="1">
          <mxGeometry y="26" width="282" height="8" as="geometry" />
        </mxCell>
        <mxCell id="tLaI_0GgtARf6P8ylGyM-98" value="1" style="endArrow=open;html=1;endSize=12;startArrow=diamondThin;startSize=14;startFill=0;edgeStyle=elbowEdgeStyle;align=left;verticalAlign=bottom;rounded=0;fontSize=12;entryX=-0.004;entryY=0.101;entryDx=0;entryDy=0;entryPerimeter=0;exitX=0;exitY=0.5;exitDx=0;exitDy=0;" parent="d6C7AB8cnqzrk_Mo-MiM-2" source="tLaI_0GgtARf6P8ylGyM-86" target="d6C7AB8cnqzrk_Mo-MiM-3" edge="1">
          <mxGeometry x="-0.8925" y="-2" relative="1" as="geometry">
            <mxPoint x="794" y="809" as="sourcePoint" />
            <mxPoint x="883" y="944" as="targetPoint" />
            <Array as="points">
              <mxPoint x="922" y="862" />
            </Array>
            <mxPoint as="offset" />
          </mxGeometry>
        </mxCell>
        <mxCell id="tLaI_0GgtARf6P8ylGyM-99" value="EducationViewModel" style="swimlane;fontStyle=1;align=center;verticalAlign=top;childLayout=stackLayout;horizontal=1;startSize=26;horizontalStack=0;resizeParent=1;resizeParentMax=0;resizeLast=0;collapsible=1;marginBottom=0;whiteSpace=wrap;html=1;" parent="d6C7AB8cnqzrk_Mo-MiM-2" vertex="1">
          <mxGeometry x="1315" y="738" width="282" height="34" as="geometry" />
        </mxCell>
        <mxCell id="tLaI_0GgtARf6P8ylGyM-100" value="" style="line;strokeWidth=1;fillColor=none;align=left;verticalAlign=middle;spacingTop=-1;spacingLeft=3;spacingRight=3;rotatable=0;labelPosition=right;points=[];portConstraint=eastwest;strokeColor=inherit;" parent="tLaI_0GgtARf6P8ylGyM-99" vertex="1">
          <mxGeometry y="26" width="282" height="8" as="geometry" />
        </mxCell>
        <mxCell id="tLaI_0GgtARf6P8ylGyM-101" value="MainMenuViewModel" style="swimlane;fontStyle=1;align=center;verticalAlign=top;childLayout=stackLayout;horizontal=1;startSize=26;horizontalStack=0;resizeParent=1;resizeParentMax=0;resizeLast=0;collapsible=1;marginBottom=0;whiteSpace=wrap;html=1;" parent="d6C7AB8cnqzrk_Mo-MiM-2" vertex="1">
          <mxGeometry x="1315" y="791" width="282" height="34" as="geometry" />
        </mxCell>
        <mxCell id="tLaI_0GgtARf6P8ylGyM-102" value="" style="line;strokeWidth=1;fillColor=none;align=left;verticalAlign=middle;spacingTop=-1;spacingLeft=3;spacingRight=3;rotatable=0;labelPosition=right;points=[];portConstraint=eastwest;strokeColor=inherit;" parent="tLaI_0GgtARf6P8ylGyM-101" vertex="1">
          <mxGeometry y="26" width="282" height="8" as="geometry" />
        </mxCell>
        <mxCell id="tLaI_0GgtARf6P8ylGyM-103" value="TestViewModel" style="swimlane;fontStyle=1;align=center;verticalAlign=top;childLayout=stackLayout;horizontal=1;startSize=26;horizontalStack=0;resizeParent=1;resizeParentMax=0;resizeLast=0;collapsible=1;marginBottom=0;whiteSpace=wrap;html=1;" parent="d6C7AB8cnqzrk_Mo-MiM-2" vertex="1">
          <mxGeometry x="1315" y="844" width="282" height="34" as="geometry" />
        </mxCell>
        <mxCell id="tLaI_0GgtARf6P8ylGyM-104" value="" style="line;strokeWidth=1;fillColor=none;align=left;verticalAlign=middle;spacingTop=-1;spacingLeft=3;spacingRight=3;rotatable=0;labelPosition=right;points=[];portConstraint=eastwest;strokeColor=inherit;" parent="tLaI_0GgtARf6P8ylGyM-103" vertex="1">
          <mxGeometry y="26" width="282" height="8" as="geometry" />
        </mxCell>
        <mxCell id="tLaI_0GgtARf6P8ylGyM-105" value="PracticViewModel&lt;span style=&quot;color: rgba(0, 0, 0, 0); font-family: monospace; font-size: 0px; font-weight: 400; text-align: start; text-wrap: nowrap;&quot;&gt;%3CmxGraphModel%3E%3Croot%3E%3CmxCell%20id%3D%220%22%2F%3E%3CmxCell%20id%3D%221%22%20parent%3D%220%22%2F%3E%3CmxCell%20id%3D%222%22%20value%3D%22TestViewModel%22%20style%3D%22swimlane%3BfontStyle%3D1%3Balign%3Dcenter%3BverticalAlign%3Dtop%3BchildLayout%3DstackLayout%3Bhorizontal%3D1%3BstartSize%3D26%3BhorizontalStack%3D0%3BresizeParent%3D1%3BresizeParentMax%3D0%3BresizeLast%3D0%3Bcollapsible%3D1%3BmarginBottom%3D0%3BwhiteSpace%3Dwrap%3Bhtml%3D1%3B%22%20vertex%3D%221%22%20parent%3D%221%22%3E%3CmxGeometry%20x%3D%224806%22%20y%3D%22833%22%20width%3D%22282%22%20height%3D%2234%22%20as%3D%22geometry%22%2F%3E%3C%2FmxCell%3E%3CmxCell%20id%3D%223%22%20value%3D%22%22%20style%3D%22line%3BstrokeWidth%3D1%3BfillColor%3Dnone%3Balign%3Dleft%3BverticalAlign%3Dmiddle%3BspacingTop%3D-1%3BspacingLeft%3D3%3BspacingRight%3D3%3Brotatable%3D0%3BlabelPosition%3Dright%3Bpoints%3D%5B%5D%3BportConstraint%3Deastwest%3BstrokeColor%3Dinherit%3B%22%20vertex%3D%221%22%20parent%3D%222%22%3E%3CmxGeometry%20y%3D%2226%22%20width%3D%22282%22%20height%3D%228%22%20as%3D%22geometry%22%2F%3E%3C%2FmxCell%3E%3C%2Froot%3E%3C%2FmxGraphModel%3E&lt;/span&gt;" style="swimlane;fontStyle=1;align=center;verticalAlign=top;childLayout=stackLayout;horizontal=1;startSize=26;horizontalStack=0;resizeParent=1;resizeParentMax=0;resizeLast=0;collapsible=1;marginBottom=0;whiteSpace=wrap;html=1;" parent="d6C7AB8cnqzrk_Mo-MiM-2" vertex="1">
          <mxGeometry x="1315" y="900" width="282" height="34" as="geometry" />
        </mxCell>
        <mxCell id="tLaI_0GgtARf6P8ylGyM-106" value="" style="line;strokeWidth=1;fillColor=none;align=left;verticalAlign=middle;spacingTop=-1;spacingLeft=3;spacingRight=3;rotatable=0;labelPosition=right;points=[];portConstraint=eastwest;strokeColor=inherit;" parent="tLaI_0GgtARf6P8ylGyM-105" vertex="1">
          <mxGeometry y="26" width="282" height="8" as="geometry" />
        </mxCell>
        <mxCell id="tLaI_0GgtARf6P8ylGyM-107" value="TheoryViewModel" style="swimlane;fontStyle=1;align=center;verticalAlign=top;childLayout=stackLayout;horizontal=1;startSize=26;horizontalStack=0;resizeParent=1;resizeParentMax=0;resizeLast=0;collapsible=1;marginBottom=0;whiteSpace=wrap;html=1;" parent="d6C7AB8cnqzrk_Mo-MiM-2" vertex="1">
          <mxGeometry x="1315" y="949" width="282" height="34" as="geometry" />
        </mxCell>
        <mxCell id="tLaI_0GgtARf6P8ylGyM-108" value="" style="line;strokeWidth=1;fillColor=none;align=left;verticalAlign=middle;spacingTop=-1;spacingLeft=3;spacingRight=3;rotatable=0;labelPosition=right;points=[];portConstraint=eastwest;strokeColor=inherit;" parent="tLaI_0GgtARf6P8ylGyM-107" vertex="1">
          <mxGeometry y="26" width="282" height="8" as="geometry" />
        </mxCell>
        <mxCell id="tLaI_0GgtARf6P8ylGyM-109" value="VisualEditorViewModel" style="swimlane;fontStyle=1;align=center;verticalAlign=top;childLayout=stackLayout;horizontal=1;startSize=26;horizontalStack=0;resizeParent=1;resizeParentMax=0;resizeLast=0;collapsible=1;marginBottom=0;whiteSpace=wrap;html=1;" parent="d6C7AB8cnqzrk_Mo-MiM-2" vertex="1">
          <mxGeometry x="553" y="941" width="282" height="34" as="geometry" />
        </mxCell>
        <mxCell id="tLaI_0GgtARf6P8ylGyM-110" value="" style="line;strokeWidth=1;fillColor=none;align=left;verticalAlign=middle;spacingTop=-1;spacingLeft=3;spacingRight=3;rotatable=0;labelPosition=right;points=[];portConstraint=eastwest;strokeColor=inherit;" parent="tLaI_0GgtARf6P8ylGyM-109" vertex="1">
          <mxGeometry y="26" width="282" height="8" as="geometry" />
        </mxCell>
        <mxCell id="tLaI_0GgtARf6P8ylGyM-111" value="1" style="endArrow=open;html=1;endSize=12;startArrow=diamondThin;startSize=14;startFill=0;edgeStyle=elbowEdgeStyle;align=left;verticalAlign=bottom;rounded=0;fontSize=12;exitX=0;exitY=0.5;exitDx=0;exitDy=0;entryX=1.001;entryY=0.135;entryDx=0;entryDy=0;entryPerimeter=0;" parent="d6C7AB8cnqzrk_Mo-MiM-2" source="tLaI_0GgtARf6P8ylGyM-101" target="d6C7AB8cnqzrk_Mo-MiM-3" edge="1">
          <mxGeometry x="-0.8306" y="-2" relative="1" as="geometry">
            <mxPoint x="1110" y="1126" as="sourcePoint" />
            <mxPoint x="1270" y="1126" as="targetPoint" />
            <Array as="points">
              <mxPoint x="1284" y="845" />
            </Array>
            <mxPoint as="offset" />
          </mxGeometry>
        </mxCell>
        <mxCell id="tLaI_0GgtARf6P8ylGyM-112" value="1" style="endArrow=open;html=1;endSize=12;startArrow=diamondThin;startSize=14;startFill=0;edgeStyle=elbowEdgeStyle;align=left;verticalAlign=bottom;rounded=0;fontSize=12;exitX=0;exitY=0.75;exitDx=0;exitDy=0;entryX=1.004;entryY=0.059;entryDx=0;entryDy=0;entryPerimeter=0;" parent="d6C7AB8cnqzrk_Mo-MiM-2" source="tLaI_0GgtARf6P8ylGyM-99" target="d6C7AB8cnqzrk_Mo-MiM-3" edge="1">
          <mxGeometry x="-0.8703" y="20" relative="1" as="geometry">
            <mxPoint x="1003" y="1122" as="sourcePoint" />
            <mxPoint x="1230" y="852" as="targetPoint" />
            <Array as="points">
              <mxPoint x="1268" y="812" />
            </Array>
            <mxPoint as="offset" />
          </mxGeometry>
        </mxCell>
        <mxCell id="tLaI_0GgtARf6P8ylGyM-113" value="1" style="endArrow=open;html=1;endSize=12;startArrow=diamondThin;startSize=14;startFill=0;edgeStyle=elbowEdgeStyle;align=left;verticalAlign=bottom;rounded=0;fontSize=12;exitX=0;exitY=0.5;exitDx=0;exitDy=0;entryX=1.008;entryY=0.102;entryDx=0;entryDy=0;entryPerimeter=0;" parent="d6C7AB8cnqzrk_Mo-MiM-2" source="tLaI_0GgtARf6P8ylGyM-103" target="d6C7AB8cnqzrk_Mo-MiM-8" edge="1">
          <mxGeometry x="-0.8714" relative="1" as="geometry">
            <mxPoint x="1092" y="1116" as="sourcePoint" />
            <mxPoint x="1252" y="1116" as="targetPoint" />
            <Array as="points">
              <mxPoint x="1291" y="903" />
            </Array>
            <mxPoint as="offset" />
          </mxGeometry>
        </mxCell>
        <mxCell id="tLaI_0GgtARf6P8ylGyM-115" value="1" style="endArrow=open;html=1;endSize=12;startArrow=diamondThin;startSize=14;startFill=0;edgeStyle=elbowEdgeStyle;align=left;verticalAlign=bottom;rounded=0;fontSize=12;exitX=0;exitY=0.5;exitDx=0;exitDy=0;entryX=1;entryY=0.5;entryDx=0;entryDy=0;" parent="d6C7AB8cnqzrk_Mo-MiM-2" source="tLaI_0GgtARf6P8ylGyM-105" target="d6C7AB8cnqzrk_Mo-MiM-8" edge="1">
          <mxGeometry x="-0.6049" y="2" relative="1" as="geometry">
            <mxPoint x="1193" y="1124" as="sourcePoint" />
            <mxPoint x="1353" y="1124" as="targetPoint" />
            <mxPoint as="offset" />
          </mxGeometry>
        </mxCell>
        <mxCell id="tLaI_0GgtARf6P8ylGyM-116" value="1" style="endArrow=open;html=1;endSize=12;startArrow=diamondThin;startSize=14;startFill=0;edgeStyle=elbowEdgeStyle;align=left;verticalAlign=bottom;rounded=0;fontSize=12;exitX=0;exitY=0.5;exitDx=0;exitDy=0;entryX=1.018;entryY=0.139;entryDx=0;entryDy=0;entryPerimeter=0;" parent="d6C7AB8cnqzrk_Mo-MiM-2" source="tLaI_0GgtARf6P8ylGyM-107" target="d6C7AB8cnqzrk_Mo-MiM-4" edge="1">
          <mxGeometry x="-0.6707" y="1" relative="1" as="geometry">
            <mxPoint x="1124" y="1138" as="sourcePoint" />
            <mxPoint x="1284" y="1138" as="targetPoint" />
            <Array as="points">
              <mxPoint x="1269" y="983" />
            </Array>
            <mxPoint as="offset" />
          </mxGeometry>
        </mxCell>
        <mxCell id="tLaI_0GgtARf6P8ylGyM-118" value="1" style="endArrow=open;html=1;endSize=12;startArrow=diamondThin;startSize=14;startFill=0;edgeStyle=elbowEdgeStyle;align=left;verticalAlign=bottom;rounded=0;fontSize=12;exitX=1.009;exitY=0.382;exitDx=0;exitDy=0;exitPerimeter=0;entryX=0;entryY=0.167;entryDx=0;entryDy=0;entryPerimeter=0;" parent="d6C7AB8cnqzrk_Mo-MiM-2" source="tLaI_0GgtARf6P8ylGyM-109" target="d6C7AB8cnqzrk_Mo-MiM-3" edge="1">
          <mxGeometry x="-1" y="3" relative="1" as="geometry">
            <mxPoint x="707" y="1016" as="sourcePoint" />
            <mxPoint x="867" y="1016" as="targetPoint" />
          </mxGeometry>
        </mxCell>
        <mxCell id="tLaI_0GgtARf6P8ylGyM-119" value="1" style="endArrow=open;html=1;endSize=12;startArrow=diamondThin;startSize=14;startFill=0;edgeStyle=elbowEdgeStyle;align=left;verticalAlign=bottom;rounded=0;fontSize=12;exitX=0;exitY=0.25;exitDx=0;exitDy=0;entryX=0.997;entryY=0.174;entryDx=0;entryDy=0;entryPerimeter=0;" parent="d6C7AB8cnqzrk_Mo-MiM-2" source="tLaI_0GgtARf6P8ylGyM-109" target="d6C7AB8cnqzrk_Mo-MiM-22" edge="1">
          <mxGeometry x="-1" y="3" relative="1" as="geometry">
            <mxPoint x="336" y="885" as="sourcePoint" />
            <mxPoint x="427" y="958" as="targetPoint" />
          </mxGeometry>
        </mxCell>
        <mxCell id="tLaI_0GgtARf6P8ylGyM-120" value="1" style="endArrow=open;html=1;endSize=12;startArrow=diamondThin;startSize=14;startFill=0;edgeStyle=elbowEdgeStyle;align=left;verticalAlign=bottom;rounded=0;fontSize=12;entryX=0;entryY=0.25;entryDx=0;entryDy=0;exitX=1;exitY=0.25;exitDx=0;exitDy=0;" parent="d6C7AB8cnqzrk_Mo-MiM-2" source="tLaI_0GgtARf6P8ylGyM-99" target="d6C7AB8cnqzrk_Mo-MiM-16" edge="1">
          <mxGeometry x="-1" y="3" relative="1" as="geometry">
            <mxPoint x="1267" y="1134" as="sourcePoint" />
            <mxPoint x="1427" y="1134" as="targetPoint" />
          </mxGeometry>
        </mxCell>
        <mxCell id="tLaI_0GgtARf6P8ylGyM-121" value="1" style="endArrow=open;html=1;endSize=12;startArrow=diamondThin;startSize=14;startFill=0;edgeStyle=elbowEdgeStyle;align=left;verticalAlign=bottom;rounded=0;fontSize=12;entryX=-0.002;entryY=0.115;entryDx=0;entryDy=0;entryPerimeter=0;" parent="d6C7AB8cnqzrk_Mo-MiM-2" target="d6C7AB8cnqzrk_Mo-MiM-9" edge="1">
          <mxGeometry x="-1" y="3" relative="1" as="geometry">
            <mxPoint x="1599" y="761" as="sourcePoint" />
            <mxPoint x="1499" y="1086" as="targetPoint" />
          </mxGeometry>
        </mxCell>
        <mxCell id="tLaI_0GgtARf6P8ylGyM-127" value="1" style="endArrow=open;html=1;endSize=12;startArrow=diamondThin;startSize=14;startFill=0;edgeStyle=elbowEdgeStyle;align=left;verticalAlign=bottom;rounded=0;fontSize=12;exitX=0;exitY=0.5;exitDx=0;exitDy=0;entryX=0.001;entryY=0.204;entryDx=0;entryDy=0;entryPerimeter=0;" parent="d6C7AB8cnqzrk_Mo-MiM-2" source="tLaI_0GgtARf6P8ylGyM-99" target="d6C7AB8cnqzrk_Mo-MiM-62" edge="1">
          <mxGeometry x="-0.8072" y="6" relative="1" as="geometry">
            <mxPoint x="1305" y="701" as="sourcePoint" />
            <mxPoint x="1160" y="661" as="targetPoint" />
            <Array as="points">
              <mxPoint x="1147" y="641" />
            </Array>
            <mxPoint as="offset" />
          </mxGeometry>
        </mxCell>
        <mxCell id="tLaI_0GgtARf6P8ylGyM-128" value="1" style="endArrow=open;html=1;endSize=12;startArrow=diamondThin;startSize=14;startFill=0;edgeStyle=orthogonalEdgeStyle;align=left;verticalAlign=bottom;rounded=0;fontSize=12;entryX=0.525;entryY=1;entryDx=0;entryDy=0;entryPerimeter=0;exitX=0.75;exitY=0;exitDx=0;exitDy=0;" parent="d6C7AB8cnqzrk_Mo-MiM-2" source="d6C7AB8cnqzrk_Mo-MiM-52" target="d6C7AB8cnqzrk_Mo-MiM-32" edge="1">
          <mxGeometry x="-1" y="3" relative="1" as="geometry">
            <mxPoint x="898" y="199" as="sourcePoint" />
            <mxPoint x="1084" y="175" as="targetPoint" />
          </mxGeometry>
        </mxCell>
        <mxCell id="tLaI_0GgtARf6P8ylGyM-129" value="1" style="endArrow=open;html=1;endSize=12;startArrow=diamondThin;startSize=14;startFill=0;edgeStyle=orthogonalEdgeStyle;align=left;verticalAlign=bottom;rounded=0;fontSize=12;entryX=0.586;entryY=0.984;entryDx=0;entryDy=0;entryPerimeter=0;exitX=0.25;exitY=0;exitDx=0;exitDy=0;" parent="d6C7AB8cnqzrk_Mo-MiM-2" source="d6C7AB8cnqzrk_Mo-MiM-52" target="d6C7AB8cnqzrk_Mo-MiM-41" edge="1">
          <mxGeometry x="-1" y="3" relative="1" as="geometry">
            <mxPoint x="458" y="227" as="sourcePoint" />
            <mxPoint x="618" y="227" as="targetPoint" />
          </mxGeometry>
        </mxCell>
        <mxCell id="tLaI_0GgtARf6P8ylGyM-130" value="1" style="endArrow=open;html=1;endSize=12;startArrow=diamondThin;startSize=14;startFill=0;edgeStyle=orthogonalEdgeStyle;align=left;verticalAlign=bottom;rounded=0;fontSize=12;exitX=-0.002;exitY=0.058;exitDx=0;exitDy=0;exitPerimeter=0;entryX=1;entryY=0.25;entryDx=0;entryDy=0;" parent="d6C7AB8cnqzrk_Mo-MiM-2" source="d6C7AB8cnqzrk_Mo-MiM-62" target="d6C7AB8cnqzrk_Mo-MiM-52" edge="1">
          <mxGeometry x="-1" y="3" relative="1" as="geometry">
            <mxPoint x="908" y="463" as="sourcePoint" />
            <mxPoint x="1068" y="463" as="targetPoint" />
          </mxGeometry>
        </mxCell>
        <mxCell id="tLaI_0GgtARf6P8ylGyM-131" value="1" style="endArrow=open;html=1;endSize=12;startArrow=diamondThin;startSize=14;startFill=0;edgeStyle=orthogonalEdgeStyle;align=left;verticalAlign=bottom;rounded=0;fontSize=12;entryX=0.997;entryY=0.083;entryDx=0;entryDy=0;entryPerimeter=0;exitX=0.001;exitY=0.066;exitDx=0;exitDy=0;exitPerimeter=0;" parent="d6C7AB8cnqzrk_Mo-MiM-2" source="d6C7AB8cnqzrk_Mo-MiM-56" target="d6C7AB8cnqzrk_Mo-MiM-52" edge="1">
          <mxGeometry x="-1" y="3" relative="1" as="geometry">
            <mxPoint x="1184" y="212" as="sourcePoint" />
            <mxPoint x="1106" y="200" as="targetPoint" />
          </mxGeometry>
        </mxCell>
        <mxCell id="tLaI_0GgtARf6P8ylGyM-132" value="1" style="endArrow=open;html=1;endSize=12;startArrow=diamondThin;startSize=14;startFill=0;edgeStyle=orthogonalEdgeStyle;align=left;verticalAlign=bottom;rounded=0;fontSize=12;exitX=0;exitY=0.25;exitDx=0;exitDy=0;entryX=-0.002;entryY=0.173;entryDx=0;entryDy=0;entryPerimeter=0;" parent="d6C7AB8cnqzrk_Mo-MiM-2" source="tLaI_0GgtARf6P8ylGyM-99" target="d6C7AB8cnqzrk_Mo-MiM-56" edge="1">
          <mxGeometry x="-0.8523" y="7" relative="1" as="geometry">
            <mxPoint x="1211" y="662" as="sourcePoint" />
            <mxPoint x="1371" y="662" as="targetPoint" />
            <Array as="points">
              <mxPoint x="1102" y="746" />
              <mxPoint x="1102" y="214" />
            </Array>
            <mxPoint as="offset" />
          </mxGeometry>
        </mxCell>
        <mxCell id="tLaI_0GgtARf6P8ylGyM-134" value="1" style="endArrow=open;html=1;endSize=12;startArrow=diamondThin;startSize=14;startFill=0;edgeStyle=orthogonalEdgeStyle;align=left;verticalAlign=bottom;rounded=0;fontSize=12;exitX=0.25;exitY=0;exitDx=0;exitDy=0;entryX=0.494;entryY=1.038;entryDx=0;entryDy=0;entryPerimeter=0;" parent="d6C7AB8cnqzrk_Mo-MiM-2" source="d6C7AB8cnqzrk_Mo-MiM-48" target="d6C7AB8cnqzrk_Mo-MiM-47" edge="1">
          <mxGeometry x="-1" y="3" relative="1" as="geometry">
            <mxPoint x="114" y="672" as="sourcePoint" />
            <mxPoint x="274" y="672" as="targetPoint" />
          </mxGeometry>
        </mxCell>
        <mxCell id="tLaI_0GgtARf6P8ylGyM-135" value="1" style="endArrow=open;html=1;endSize=12;startArrow=diamondThin;startSize=14;startFill=0;edgeStyle=orthogonalEdgeStyle;align=left;verticalAlign=bottom;rounded=0;fontSize=12;entryX=0.578;entryY=1.033;entryDx=0;entryDy=0;entryPerimeter=0;exitX=0.75;exitY=0;exitDx=0;exitDy=0;" parent="d6C7AB8cnqzrk_Mo-MiM-2" source="d6C7AB8cnqzrk_Mo-MiM-48" target="d6C7AB8cnqzrk_Mo-MiM-44" edge="1">
          <mxGeometry x="-1" y="3" relative="1" as="geometry">
            <mxPoint x="387" y="665" as="sourcePoint" />
            <mxPoint x="547" y="665" as="targetPoint" />
          </mxGeometry>
        </mxCell>
        <mxCell id="bv4oa5Seut9HWziS8_-Y-1" value="VerifyTestViewModel&amp;nbsp;" style="swimlane;fontStyle=1;align=center;verticalAlign=top;childLayout=stackLayout;horizontal=1;startSize=26;horizontalStack=0;resizeParent=1;resizeParentMax=0;resizeLast=0;collapsible=1;marginBottom=0;whiteSpace=wrap;html=1;" vertex="1" parent="d6C7AB8cnqzrk_Mo-MiM-2">
          <mxGeometry x="1759" y="907" width="282" height="34" as="geometry" />
        </mxCell>
        <mxCell id="bv4oa5Seut9HWziS8_-Y-2" value="" style="line;strokeWidth=1;fillColor=none;align=left;verticalAlign=middle;spacingTop=-1;spacingLeft=3;spacingRight=3;rotatable=0;labelPosition=right;points=[];portConstraint=eastwest;strokeColor=inherit;" vertex="1" parent="bv4oa5Seut9HWziS8_-Y-1">
          <mxGeometry y="26" width="282" height="8" as="geometry" />
        </mxCell>
        <mxCell id="bv4oa5Seut9HWziS8_-Y-4" value="2" style="endArrow=open;html=1;endSize=12;startArrow=diamondThin;startSize=14;startFill=0;edgeStyle=elbowEdgeStyle;align=left;verticalAlign=bottom;rounded=0;fontSize=12;exitX=1;exitY=0.5;exitDx=0;exitDy=0;entryX=1.002;entryY=0.09;entryDx=0;entryDy=0;entryPerimeter=0;" edge="1" parent="d6C7AB8cnqzrk_Mo-MiM-2" source="tLaI_0GgtARf6P8ylGyM-72" target="tLaI_0GgtARf6P8ylGyM-35">
          <mxGeometry x="-1" y="3" relative="1" as="geometry">
            <mxPoint x="3096" y="746" as="sourcePoint" />
            <mxPoint x="3256" y="746" as="targetPoint" />
            <Array as="points">
              <mxPoint x="3205" y="752" />
            </Array>
          </mxGeometry>
        </mxCell>
        <mxCell id="bv4oa5Seut9HWziS8_-Y-5" value="1" style="endArrow=open;html=1;endSize=12;startArrow=diamondThin;startSize=14;startFill=0;edgeStyle=orthogonalEdgeStyle;align=left;verticalAlign=bottom;rounded=0;fontSize=12;exitX=1;exitY=0.5;exitDx=0;exitDy=0;entryX=0;entryY=0.25;entryDx=0;entryDy=0;" edge="1" parent="d6C7AB8cnqzrk_Mo-MiM-2" source="tLaI_0GgtARf6P8ylGyM-99" target="bv4oa5Seut9HWziS8_-Y-1">
          <mxGeometry x="-1" y="3" relative="1" as="geometry">
            <mxPoint x="1700" y="849" as="sourcePoint" />
            <mxPoint x="1860" y="849" as="targetPoint" />
          </mxGeometry>
        </mxCell>
        <mxCell id="bv4oa5Seut9HWziS8_-Y-6" value="VerifyTestViewModel&amp;nbsp;" style="swimlane;fontStyle=1;align=center;verticalAlign=top;childLayout=stackLayout;horizontal=1;startSize=26;horizontalStack=0;resizeParent=1;resizeParentMax=0;resizeLast=0;collapsible=1;marginBottom=0;whiteSpace=wrap;html=1;" vertex="1" parent="d6C7AB8cnqzrk_Mo-MiM-2">
          <mxGeometry x="2295" y="1260" width="436" height="164" as="geometry" />
        </mxCell>
        <mxCell id="bv4oa5Seut9HWziS8_-Y-8" value="Pints: int" style="text;strokeColor=none;fillColor=none;align=left;verticalAlign=top;spacingLeft=4;spacingRight=4;overflow=hidden;rotatable=0;points=[[0,0.5],[1,0.5]];portConstraint=eastwest;whiteSpace=wrap;html=1;" vertex="1" parent="bv4oa5Seut9HWziS8_-Y-6">
          <mxGeometry y="26" width="436" height="26" as="geometry" />
        </mxCell>
        <mxCell id="bv4oa5Seut9HWziS8_-Y-10" value="VerifableTest: Test" style="text;strokeColor=none;fillColor=none;align=left;verticalAlign=top;spacingLeft=4;spacingRight=4;overflow=hidden;rotatable=0;points=[[0,0.5],[1,0.5]];portConstraint=eastwest;whiteSpace=wrap;html=1;" vertex="1" parent="bv4oa5Seut9HWziS8_-Y-6">
          <mxGeometry y="52" width="436" height="26" as="geometry" />
        </mxCell>
        <mxCell id="bv4oa5Seut9HWziS8_-Y-11" value="SelectedAnswerByQuestion:&amp;nbsp;Dictionary&amp;lt;Question, Answer&amp;gt;" style="text;strokeColor=none;fillColor=none;align=left;verticalAlign=top;spacingLeft=4;spacingRight=4;overflow=hidden;rotatable=0;points=[[0,0.5],[1,0.5]];portConstraint=eastwest;whiteSpace=wrap;html=1;" vertex="1" parent="bv4oa5Seut9HWziS8_-Y-6">
          <mxGeometry y="78" width="436" height="26" as="geometry" />
        </mxCell>
        <mxCell id="bv4oa5Seut9HWziS8_-Y-12" value="QuestionVerifiedAnswerMap: &amp;lt;Question, List&amp;lt;VisualAnswer&amp;gt;&amp;gt;" style="text;strokeColor=none;fillColor=none;align=left;verticalAlign=top;spacingLeft=4;spacingRight=4;overflow=hidden;rotatable=0;points=[[0,0.5],[1,0.5]];portConstraint=eastwest;whiteSpace=wrap;html=1;" vertex="1" parent="bv4oa5Seut9HWziS8_-Y-6">
          <mxGeometry y="104" width="436" height="26" as="geometry" />
        </mxCell>
        <mxCell id="bv4oa5Seut9HWziS8_-Y-7" value="" style="line;strokeWidth=1;fillColor=none;align=left;verticalAlign=middle;spacingTop=-1;spacingLeft=3;spacingRight=3;rotatable=0;labelPosition=right;points=[];portConstraint=eastwest;strokeColor=inherit;" vertex="1" parent="bv4oa5Seut9HWziS8_-Y-6">
          <mxGeometry y="130" width="436" height="8" as="geometry" />
        </mxCell>
        <mxCell id="bv4oa5Seut9HWziS8_-Y-9" value="CheckAnswer(): void" style="text;strokeColor=none;fillColor=none;align=left;verticalAlign=top;spacingLeft=4;spacingRight=4;overflow=hidden;rotatable=0;points=[[0,0.5],[1,0.5]];portConstraint=eastwest;whiteSpace=wrap;html=1;" vertex="1" parent="bv4oa5Seut9HWziS8_-Y-6">
          <mxGeometry y="138" width="436" height="26" as="geometry" />
        </mxCell>
        <mxCell id="bv4oa5Seut9HWziS8_-Y-13" value="1" style="endArrow=open;html=1;endSize=12;startArrow=diamondThin;startSize=14;startFill=0;edgeStyle=orthogonalEdgeStyle;align=left;verticalAlign=bottom;rounded=0;fontSize=12;exitX=1;exitY=0.25;exitDx=0;exitDy=0;entryX=0.002;entryY=0.096;entryDx=0;entryDy=0;entryPerimeter=0;" edge="1" parent="d6C7AB8cnqzrk_Mo-MiM-2" source="bv4oa5Seut9HWziS8_-Y-1" target="bv4oa5Seut9HWziS8_-Y-6">
          <mxGeometry x="-1" y="3" relative="1" as="geometry">
            <mxPoint x="2121" y="1188" as="sourcePoint" />
            <mxPoint x="2281" y="1188" as="targetPoint" />
            <Array as="points">
              <mxPoint x="2232" y="915" />
              <mxPoint x="2232" y="1276" />
            </Array>
          </mxGeometry>
        </mxCell>
      </root>
    </mxGraphModel>
  </diagram>
</mxfile>
